<svg width="100" height="100" viewBox="0 0 100 100" fill="none" xmlns="http://www.w3.org/2000/svg">
<path d="M80.8126 21.7578C79.1329 17.7891 75.5079 12.6406 71.7657 10.3516C63.0626 5 52.0001 3.96875 42.1329 5.85937C26.6329 8.82812 12.1095 18.8516 4.83607 32.9765C-0.312367 42.9765 -1.37487 58.2187 5.4845 67.8125C9.96106 74.0703 18.8439 76.4375 25.8907 73.5C30.6798 71.5078 33.6485 67.0703 37.7892 64.164C43.1642 60.3828 48.9923 61.4531 55.2267 61.2109C73.1251 60.5312 87.7579 38.25 80.8126 21.7578ZM54.4923 47.5703C53.0704 48.1172 51.2032 48.4375 49.672 48.2109C48.1251 47.9687 46.4845 46.8359 45.6642 45.4922C42.8126 40.8672 47.547 35.5156 51.922 34.3515C54.0939 33.7734 57.2813 34.1328 59.0079 35.625C63.4845 39.4922 58.6017 45.9765 54.4923 47.5703Z" fill="#F79329"/>
<path d="M33.961 16.8671C35.1875 15.8828 36.7656 15.2656 38.2422 15.1406C40.9375 14.9062 42.8438 17.3046 42.7344 19.9609C42.5859 23.3203 38.8984 24.9531 35.8203 24.8203C33.4297 24.7187 31.461 22.5625 31.8594 20.2343C32.1016 18.875 32.8985 17.7343 33.961 16.8671Z" fill="#ED6C30"/>
<path d="M12.8828 41.9375C13.8125 38.1953 18.2578 35.8281 21.4219 38.5C24.4375 41.0391 23.0235 46.0703 19.8281 47.9141C17.7031 49.1406 14.5469 48.3203 13.3203 46.0469C12.6406 44.7891 12.5391 43.3125 12.8828 41.9375Z" fill="#BDCF46"/>
<path d="M22.4454 54.703C24.2188 58.0624 23.0391 63.2421 18.7188 63.6014C14.3985 63.9608 11.9845 58.8749 13.1016 55.1561C14.2188 51.453 18.797 50.8436 21.3751 53.2811C21.8126 53.6952 22.172 54.1717 22.4454 54.703Z" fill="#006CA2"/>
<path d="M29.9063 30.8282C28.7423 32.9688 26.0313 34.836 23.5235 34.5235C20.3751 34.1329 19.1407 30.3829 20.5079 27.7032C22.3829 24.0313 28.2579 22.5626 30.2267 27.0782C30.7657 28.3204 30.5548 29.6485 29.9063 30.8282Z" fill="#FCC21B"/>
<path d="M57.4688 69.2501C53.5235 69.0938 49.3282 70.8907 46.7657 74.2266C44.1095 77.6798 44.1876 82.1016 44.0782 86.2423C44.0157 88.4923 44.3907 91.6329 42.7579 93.461C42.0235 94.2813 41.2501 94.4532 40.2501 94.5782C39.8595 94.6251 37.9532 94.3282 38.672 95.422C40.0392 97.5079 45.1251 98.0391 47.3048 98.1329C53.1642 98.3985 58.9298 95.8048 62.797 91.4219C63.1954 90.961 63.5782 90.4845 63.9376 89.9923C66.8204 86.0235 68.5079 80.3985 66.6563 75.672C64.9845 71.4142 61.3438 69.3985 57.4688 69.2501Z" fill="white"/>
<mask id="mask0_0_328" style="mask-type:luminance" maskUnits="userSpaceOnUse" x="38" y="69" width="30" height="30">
<path d="M57.4688 69.2501C53.5235 69.0938 49.3282 70.8907 46.7657 74.2266C44.1095 77.6798 44.1876 82.1016 44.0782 86.2423C44.0157 88.4923 44.3907 91.6329 42.7579 93.461C42.0235 94.2813 41.2501 94.4532 40.2501 94.5782C39.8595 94.6251 37.9532 94.3282 38.672 95.422C40.0392 97.5079 45.1251 98.0391 47.3048 98.1329C53.1642 98.3985 58.9298 95.8048 62.797 91.4219C63.1954 90.961 63.5782 90.4845 63.9376 89.9923C66.8204 86.0235 68.5079 80.3985 66.6563 75.672C64.9845 71.4142 61.3438 69.3985 57.4688 69.2501Z" fill="white"/>
</mask>
<g mask="url(#mask0_0_328)">
<path d="M50.8204 80.9608C50.9064 81.1483 50.9845 81.3905 51.0235 81.6952C51.2657 83.5546 52.6876 83.9608 54.3751 83.9608C56.086 83.9608 58.2189 83.5858 58.2189 85.8827C58.211 86.8671 57.7423 87.5936 58.7267 88.1952C60.211 89.1015 63.0548 88.8905 64.4923 87.9452C65.3829 87.3593 66.6329 86.8358 66.0704 88.4999C65.7423 89.4608 65.1017 90.3436 64.6329 91.2499C64.1173 92.2421 63.4689 93.0311 62.6876 93.828C62.1173 94.414 61.7267 95.1171 61.0704 95.6171C59.3907 96.8905 57.2032 97.289 55.2423 97.9296C52.6173 98.7889 50.1095 100.32 47.297 99.5311C44.3204 98.6952 41.0782 99.0311 38.1486 98.0702C36.7032 97.5936 35.8048 96.7186 36.0236 95.164C36.2189 93.828 37.1329 93.328 38.3517 93.0624C39.7267 92.7577 40.8517 92.3905 41.4845 91.0155C42.0314 89.8515 41.6564 88.1561 41.5782 86.9218C41.4689 85.2421 41.2814 83.4686 41.7111 81.8202C42.0704 80.4608 42.4689 79.1015 43.0626 77.8202C43.336 77.2187 43.6251 76.4843 44.0626 75.9843C44.7423 75.203 45.5782 74.8515 46.5001 74.4374C46.7892 75.1796 46.172 76.3593 46.0626 77.1093C45.8829 78.3983 45.922 79.7811 47.2345 80.3046C48.5079 80.789 50.2032 79.664 50.8204 80.9608Z" fill="#ED6C30"/>
</g>
<path d="M71.8203 47.3672C76.25 42.2735 79.5156 36.1875 83.5078 30.7344C85.9609 27.3907 88.2187 23.8594 90.5 20.4141C91.9453 18.2344 94.0234 14.4141 97.0859 14.4688C97.6172 14.4766 98.1015 14.7032 98.5312 15.0078C99.4765 15.6797 99.4687 17.2969 99.1562 18.2969C97.914 22.3203 95.5859 26.1719 93.6328 29.8907C92.8906 31.3125 92.1328 32.7344 91.3437 34.1328C89.039 38.2344 86.6328 42.2813 84.5078 46.4844C83.6797 48.125 82.8984 49.7813 82.1875 51.4688C81.7422 52.5156 81.0547 53.4063 80.7812 54.5C80.5 55.625 77.9609 52.461 77.8047 52.211C77.2265 51.25 76.6953 50.7422 75.664 50.3985C74.9219 50.1563 70.9453 49.586 71.2656 48.3203C71.3515 47.9922 71.5547 47.6719 71.8203 47.3672Z" fill="#855C52"/>
<path d="M80.1094 53.4063C79.3594 51.836 77.9063 50.9532 76.6328 50.1719C76.3047 49.9688 75.9766 49.7735 75.6797 49.5704C73.6641 48.1876 71.9375 47.8516 70.5469 48.5157C68.461 49.5157 66.9844 52.1563 65.7891 54.2813C65.461 54.8594 65.1641 55.3907 64.8907 55.8282C62.6485 59.3204 60.4844 62 56.6563 64.5782L56.3282 64.7891C55.461 65.3438 54.2735 66.1094 54.1797 67.4922C54.1407 68.0782 54.3047 68.961 55.3282 69.8282C56.4454 70.7735 57.6719 71.3516 58.8594 71.9063C59.2813 72.1016 59.711 72.3047 60.125 72.5235C61.4922 73.2422 62.7344 74.1875 64.0547 75.1954L64.836 75.7813C65.0391 75.9297 65.2422 76.1328 65.461 76.3282C66.0703 76.8985 66.8282 77.6172 67.8125 77.8907C68.1485 77.9844 68.4453 78.0313 68.711 78.0313C69.7735 78.0313 70.3047 77.375 70.5938 77.0235L70.711 76.8829C71.8516 75.5469 72.4141 73.7579 72.9063 72.1797C73.1407 71.4141 73.3672 70.6875 73.6328 70.0782C74.0547 69.1172 74.4532 68.1485 74.8516 67.1797C75.7266 65.0391 76.5547 63.0157 77.625 61.086C77.875 60.625 78.2422 60.1485 78.6328 59.6485C79.7813 58.1329 81.3672 56.0547 80.1094 53.4063Z" fill="#78A3AD"/>
<mask id="mask1_0_328" style="mask-type:luminance" maskUnits="userSpaceOnUse" x="54" y="48" width="27" height="31">
<path d="M80.1094 53.4063C79.3594 51.836 77.9063 50.9532 76.6328 50.1719C76.3047 49.9688 75.9766 49.7735 75.6797 49.5704C73.6641 48.1876 71.9375 47.8516 70.5469 48.5157C68.461 49.5157 66.9844 52.1563 65.7891 54.2813C65.461 54.8594 65.1641 55.3907 64.8907 55.8282C62.6485 59.3204 60.4844 62 56.6563 64.5782L56.3282 64.7891C55.461 65.3438 54.2735 66.1094 54.1797 67.4922C54.1407 68.0782 54.3047 68.961 55.3282 69.8282C56.4454 70.7735 57.6719 71.3516 58.8594 71.9063C59.2813 72.1016 59.711 72.3047 60.125 72.5235C61.4922 73.2422 62.7344 74.1875 64.0547 75.1954L64.836 75.7813C65.0391 75.9297 65.2422 76.1328 65.461 76.3282C66.0703 76.8985 66.8282 77.6172 67.8125 77.8907C68.1485 77.9844 68.4453 78.0313 68.711 78.0313C69.7735 78.0313 70.3047 77.375 70.5938 77.0235L70.711 76.8829C71.8516 75.5469 72.4141 73.7579 72.9063 72.1797C73.1407 71.4141 73.3672 70.6875 73.6328 70.0782C74.0547 69.1172 74.4532 68.1485 74.8516 67.1797C75.7266 65.0391 76.5547 63.0157 77.625 61.086C77.875 60.625 78.2422 60.1485 78.6328 59.6485C79.7813 58.1329 81.3672 56.0547 80.1094 53.4063Z" fill="white"/>
</mask>
<g mask="url(#mask1_0_328)">
<path d="M73.2109 77.2343C72.6484 77.2343 72.1015 76.9609 71.75 76.4609C71.3359 75.8437 71.0859 75.2343 70.8593 74.6953C70.6562 74.2031 70.4843 73.7812 70.2265 73.4453C67.8281 70.3515 64.9218 68.2109 60.1875 66.0468C58.7734 65.3984 57.4843 65.0781 56.3906 65.0781C55.414 65.0781 54.625 64.289 54.625 63.3203C54.625 62.3515 55.414 61.5625 56.3906 61.5625C57.9922 61.5625 59.7656 62 61.6484 62.8515C65.3281 64.5312 69.5625 66.8515 73.0078 71.2968C73.5625 72.0078 73.8593 72.7265 74.1172 73.3671C74.2968 73.8046 74.4531 74.1796 74.6718 74.5C75.2187 75.3046 75 76.3984 74.2031 76.9375C73.8906 77.1328 73.5468 77.2343 73.2109 77.2343Z" fill="#2F2F2F"/>
</g>
</svg>
