<svg width="421" height="593" viewBox="0 0 421 593" fill="none" xmlns="http://www.w3.org/2000/svg">
<mask id="mask0_3_651" style="mask-type:alpha" maskUnits="userSpaceOnUse" x="56" y="256" width="294" height="337">
<rect x="56.2265" y="256.347" width="292.918" height="336.028" fill="url(#paint0_linear_3_651)"/>
</mask>
<g mask="url(#mask0_3_651)">
<g opacity="0.8">
<path d="M210.501 276.334L282.875 315.569L317.474 372.995L265.473 561.549L210.5 529.754L210.501 276.334Z" fill="url(#paint1_linear_3_651)"/>
<path opacity="0.8" d="M210.499 276.334L210.5 406.557L274.42 368.908L282.874 315.57L210.499 276.334Z" fill="url(#paint2_linear_3_651)" fill-opacity="0.7"/>
<g opacity="0.8">
<path d="M210.499 276.336L138.113 315.578L103.526 372.996L155.527 561.549L210.499 529.754L210.499 276.336Z" fill="url(#paint3_linear_3_651)" fill-opacity="0.7"/>
<path d="M210.499 276.336L138.113 315.578L103.526 372.996L155.527 561.549L210.499 529.754L210.499 276.336Z" fill="url(#paint4_linear_3_651)" fill-opacity="0.5"/>
</g>
<path d="M265.475 561.549L210.5 529.755L210.5 593.343L265.475 561.549Z" fill="url(#paint5_linear_3_651)"/>
<path d="M210.501 376.462L174.1 355.41L210.501 334.358L246.902 355.41L210.501 376.462Z" fill="url(#paint6_linear_3_651)" fill-opacity="0.5"/>
<path d="M155.525 561.549L210.5 593.343L210.5 529.755L155.525 561.549Z" fill="url(#paint7_linear_3_651)" fill-opacity="0.8"/>
<path d="M210.501 579.943L181.015 562.89L210.501 545.837L239.987 562.89L210.501 579.943Z" fill="url(#paint8_linear_3_651)" fill-opacity="0.6"/>
<path opacity="0.8" d="M210.5 276.334L210.499 406.556L146.578 368.907L138.125 315.569L210.5 276.334Z" fill="url(#paint9_linear_3_651)"/>
<path d="M103.527 372.995L138.126 315.569L146.579 368.907L103.527 372.995Z" fill="url(#paint10_linear_3_651)" fill-opacity="0.7"/>
<path d="M210.501 426.072L151.259 391.81L210.501 357.548L269.743 391.81L210.501 426.072Z" fill="url(#paint11_linear_3_651)" fill-opacity="0.7"/>
<path d="M210.501 426.072L151.259 391.81L210.501 357.548L269.743 391.81L210.501 426.072Z" fill="url(#paint12_linear_3_651)" fill-opacity="0.7"/>
<path d="M210.502 357.549L151.261 391.81L174.102 355.408L210.502 334.358L210.502 357.549Z" fill="url(#paint13_linear_3_651)" fill-opacity="0.9"/>
<path d="M210.501 357.54L269.743 391.801L239.986 562.889L210.501 545.836L210.501 357.54Z" fill="url(#paint14_linear_3_651)" fill-opacity="0.6"/>
<path d="M210.5 357.54L151.259 391.801L181.016 562.889L210.5 545.836L210.5 357.54Z" fill="url(#paint15_linear_3_651)" fill-opacity="0.9"/>
<path d="M210.502 357.549L269.743 391.81L246.902 355.408L210.502 334.358L210.502 357.549Z" fill="url(#paint16_linear_3_651)" fill-opacity="0.9"/>
<path d="M317.473 372.996L282.874 315.569L274.421 368.908L317.473 372.996Z" fill="url(#paint17_linear_3_651)" fill-opacity="0.7"/>
</g>
</g>
<g filter="url(#filter0_f_3_651)">
<ellipse cx="210.5" cy="308.501" rx="201.856" ry="88.1542" fill="url(#paint18_radial_3_651)" fill-opacity="0.6"/>
</g>
<g filter="url(#filter1_f_3_651)">
<ellipse cx="210.5" cy="308.501" rx="143.38" ry="62.6168" fill="url(#paint19_radial_3_651)" fill-opacity="0.6"/>
</g>
<path d="M210.498 235.885L315.562 296.647L210.498 357.409L105.435 296.647L210.498 235.885Z" fill="url(#paint20_linear_3_651)" fill-opacity="0.5"/>
<path d="M210.499 317.009L138.125 277.774L103.526 220.348L155.527 31.7942L210.5 63.5891L210.499 317.009Z" fill="url(#paint21_linear_3_651)"/>
<path opacity="0.8" d="M210.5 317.009L210.499 186.787L146.579 224.435L138.126 277.773L210.5 317.009Z" fill="url(#paint22_linear_3_651)" fill-opacity="0.7"/>
<g opacity="0.8">
<path d="M210.5 317.008L282.887 277.765L317.474 220.348L265.472 31.7942L210.5 63.5891L210.5 317.008Z" fill="url(#paint23_linear_3_651)" fill-opacity="0.7"/>
<path d="M210.5 317.008L282.887 277.765L317.474 220.348L265.472 31.7942L210.5 63.5891L210.5 317.008Z" fill="url(#paint24_linear_3_651)" fill-opacity="0.5"/>
</g>
<path d="M155.525 31.7942L210.5 63.5883L210.5 1.75258e-05L155.525 31.7942Z" fill="url(#paint25_linear_3_651)"/>
<path d="M210.499 216.881L246.9 237.933L210.499 258.985L174.098 237.933L210.499 216.881Z" fill="url(#paint26_linear_3_651)" fill-opacity="0.5"/>
<path d="M265.475 31.7942L210.5 1.75258e-05L210.5 63.5883L265.475 31.7942Z" fill="url(#paint27_linear_3_651)" fill-opacity="0.8"/>
<path d="M210.499 13.4005L239.985 30.4535L210.499 47.5065L181.013 30.4535L210.499 13.4005Z" fill="url(#paint28_linear_3_651)" fill-opacity="0.6"/>
<path opacity="0.8" d="M210.501 317.009L210.502 186.786L274.422 224.435L282.875 277.773L210.501 317.009Z" fill="url(#paint29_linear_3_651)"/>
<path d="M317.474 220.347L282.875 277.773L274.422 224.435L317.474 220.347Z" fill="url(#paint30_linear_3_651)" fill-opacity="0.7"/>
<path d="M210.499 167.27L269.741 201.532L210.499 235.794L151.257 201.532L210.499 167.27Z" fill="url(#paint31_linear_3_651)" fill-opacity="0.7"/>
<path d="M210.499 167.27L269.741 201.532L210.499 235.794L151.257 201.532L210.499 167.27Z" fill="url(#paint32_linear_3_651)" fill-opacity="0.7"/>
<path d="M210.498 235.793L269.739 201.533L246.898 237.934L210.498 258.985V235.793Z" fill="url(#paint33_linear_3_651)" fill-opacity="0.9"/>
<path d="M210.499 235.803L151.258 201.541L181.014 30.4534L210.499 47.5068L210.499 235.803Z" fill="url(#paint34_linear_3_651)" fill-opacity="0.6"/>
<path d="M210.5 235.803L269.741 201.541L239.984 30.4534L210.5 47.5068L210.5 235.803Z" fill="url(#paint35_linear_3_651)" fill-opacity="0.9"/>
<path d="M210.498 235.793L151.256 201.533L174.098 237.934L210.498 258.985V235.793Z" fill="url(#paint36_linear_3_651)" fill-opacity="0.9"/>
<path d="M103.527 220.347L138.126 277.774L146.579 224.435L103.527 220.347Z" fill="url(#paint37_linear_3_651)" fill-opacity="0.7"/>
<defs>
<filter id="filter0_f_3_651" x="2.76597e-05" y="211.703" width="421" height="193.596" filterUnits="userSpaceOnUse" color-interpolation-filters="sRGB">
<feFlood flood-opacity="0" result="BackgroundImageFix"/>
<feBlend mode="normal" in="SourceGraphic" in2="BackgroundImageFix" result="shape"/>
<feGaussianBlur stdDeviation="4.32143" result="effect1_foregroundBlur_3_651"/>
</filter>
<filter id="filter1_f_3_651" x="58.476" y="237.24" width="304.048" height="142.521" filterUnits="userSpaceOnUse" color-interpolation-filters="sRGB">
<feFlood flood-opacity="0" result="BackgroundImageFix"/>
<feBlend mode="normal" in="SourceGraphic" in2="BackgroundImageFix" result="shape"/>
<feGaussianBlur stdDeviation="4.32143" result="effect1_foregroundBlur_3_651"/>
</filter>
<linearGradient id="paint0_linear_3_651" x1="202.686" y1="123.615" x2="202.686" y2="486.833" gradientUnits="userSpaceOnUse">
<stop/>
<stop offset="1" stop-opacity="0"/>
</linearGradient>
<linearGradient id="paint1_linear_3_651" x1="-0.0589177" y1="581.504" x2="-15.4878" y2="368.292" gradientUnits="userSpaceOnUse">
<stop stop-color="#3D79ED"/>
<stop offset="0.265625" stop-color="#3458C1" stop-opacity="0.7"/>
<stop offset="0.618879" stop-color="#3753B8" stop-opacity="0.7"/>
<stop offset="0.895833" stop-color="#5BB0FF" stop-opacity="0.9"/>
<stop offset="1" stop-color="#5BB0FF" stop-opacity="0.6"/>
</linearGradient>
<linearGradient id="paint2_linear_3_651" x1="219.059" y1="293.519" x2="256.292" y2="376.092" gradientUnits="userSpaceOnUse">
<stop offset="0.046875" stop-color="white"/>
<stop offset="0.427083" stop-color="#DFF4FF"/>
<stop offset="0.994792" stop-color="#0E42C8"/>
</linearGradient>
<linearGradient id="paint3_linear_3_651" x1="103.526" y1="268.477" x2="227.434" y2="363.016" gradientUnits="userSpaceOnUse">
<stop offset="0.280479" stop-color="white"/>
<stop offset="0.469567" stop-color="#FF79DA"/>
<stop offset="0.692708" stop-color="#3D3AE3" stop-opacity="0.9"/>
</linearGradient>
<linearGradient id="paint4_linear_3_651" x1="103.526" y1="281.694" x2="226.015" y2="399.253" gradientUnits="userSpaceOnUse">
<stop offset="0.161458" stop-color="white"/>
<stop offset="1" stop-color="white" stop-opacity="0"/>
</linearGradient>
<linearGradient id="paint5_linear_3_651" x1="210.364" y1="592.286" x2="239.232" y2="544.984" gradientUnits="userSpaceOnUse">
<stop stop-color="#1AD6FF"/>
<stop offset="1" stop-color="#496BE4" stop-opacity="0.6"/>
<stop offset="1" stop-color="#1F3CA3"/>
</linearGradient>
<linearGradient id="paint6_linear_3_651" x1="189.608" y1="343.534" x2="239.701" y2="355.41" gradientUnits="userSpaceOnUse">
<stop stop-color="#81FF6C"/>
<stop offset="1" stop-color="#31F3FF"/>
</linearGradient>
<linearGradient id="paint7_linear_3_651" x1="155.525" y1="564.809" x2="207.93" y2="569.678" gradientUnits="userSpaceOnUse">
<stop stop-color="#FF79C9"/>
<stop offset="1" stop-color="#1F3CA3"/>
</linearGradient>
<linearGradient id="paint8_linear_3_651" x1="186.714" y1="558.896" x2="221.494" y2="562.89" gradientUnits="userSpaceOnUse">
<stop stop-color="#52FF6E"/>
<stop offset="1" stop-color="#31FFFF"/>
</linearGradient>
<linearGradient id="paint9_linear_3_651" x1="152.281" y1="296.997" x2="179.352" y2="393.077" gradientUnits="userSpaceOnUse">
<stop offset="0.103809" stop-color="white"/>
<stop offset="0.436548" stop-color="#FFAACE" stop-opacity="0.8"/>
<stop offset="0.71875" stop-color="#6F97FF" stop-opacity="0.8"/>
</linearGradient>
<linearGradient id="paint10_linear_3_651" x1="125.053" y1="330.386" x2="146.579" y2="372.995" gradientUnits="userSpaceOnUse">
<stop stop-color="white"/>
<stop offset="0.591466" stop-color="#FF94D4"/>
<stop offset="1" stop-color="#C994FF"/>
</linearGradient>
<linearGradient id="paint11_linear_3_651" x1="176.498" y1="372.483" x2="258.023" y2="391.811" gradientUnits="userSpaceOnUse">
<stop stop-color="#81FF6C"/>
<stop offset="1" stop-color="#31F3FF"/>
</linearGradient>
<linearGradient id="paint12_linear_3_651" x1="210.501" y1="360.008" x2="210.501" y2="427.636" gradientUnits="userSpaceOnUse">
<stop stop-color="white"/>
<stop offset="1" stop-color="white" stop-opacity="0"/>
</linearGradient>
<linearGradient id="paint13_linear_3_651" x1="148.371" y1="391.81" x2="209.002" y2="337.065" gradientUnits="userSpaceOnUse">
<stop offset="0.149863" stop-color="white"/>
<stop offset="0.300261" stop-color="#8CFF31"/>
<stop offset="0.449118" stop-color="#45C3EB"/>
<stop offset="1" stop-color="#72E6FF"/>
</linearGradient>
<linearGradient id="paint14_linear_3_651" x1="236.952" y1="357.54" x2="330.923" y2="423.387" gradientUnits="userSpaceOnUse">
<stop stop-color="#6CFFED"/>
<stop offset="1" stop-color="#197F9F"/>
</linearGradient>
<linearGradient id="paint15_linear_3_651" x1="3.46418" y1="434.529" x2="101.621" y2="537.305" gradientUnits="userSpaceOnUse">
<stop offset="0.464598" stop-color="white"/>
<stop offset="0.790313" stop-color="#6DF390"/>
<stop offset="1" stop-color="#21CAFF" stop-opacity="0.9"/>
</linearGradient>
<linearGradient id="paint16_linear_3_651" x1="269.743" y1="391.81" x2="212" y2="337.144" gradientUnits="userSpaceOnUse">
<stop offset="0.125" stop-color="white"/>
<stop offset="0.297772" stop-color="#8CFF31"/>
<stop offset="0.447917" stop-color="#5BF5FF"/>
</linearGradient>
<linearGradient id="paint17_linear_3_651" x1="280.622" y1="310.909" x2="288.969" y2="372.996" gradientUnits="userSpaceOnUse">
<stop stop-color="#DFF4FF"/>
<stop offset="0.994792" stop-color="#0E42C8"/>
</linearGradient>
<radialGradient id="paint18_radial_3_651" cx="0" cy="0" r="1" gradientUnits="userSpaceOnUse" gradientTransform="translate(210.501 308.526) rotate(90) scale(88.1542 201.856)">
<stop stop-color="#739AFF"/>
<stop offset="1" stop-color="#6978FF" stop-opacity="0"/>
</radialGradient>
<radialGradient id="paint19_radial_3_651" cx="0" cy="0" r="1" gradientUnits="userSpaceOnUse" gradientTransform="translate(210.508 308.528) rotate(90) scale(62.6168 143.38)">
<stop stop-color="#739AFF"/>
<stop offset="1" stop-color="#6978FF" stop-opacity="0"/>
</radialGradient>
<linearGradient id="paint20_linear_3_651" x1="263.03" y1="244.115" x2="157.967" y2="349.179" gradientUnits="userSpaceOnUse">
<stop stop-color="#6C7BFF"/>
<stop offset="1" stop-color="#31B5FF"/>
</linearGradient>
<linearGradient id="paint21_linear_3_651" x1="421.059" y1="11.8391" x2="436.488" y2="225.051" gradientUnits="userSpaceOnUse">
<stop stop-color="#3D79ED"/>
<stop offset="0.265625" stop-color="#3458C1" stop-opacity="0.7"/>
<stop offset="0.618879" stop-color="#3753B8" stop-opacity="0.7"/>
<stop offset="0.895833" stop-color="#5BB0FF" stop-opacity="0.9"/>
<stop offset="1" stop-color="#5BB0FF" stop-opacity="0.6"/>
</linearGradient>
<linearGradient id="paint22_linear_3_651" x1="201.94" y1="299.824" x2="164.708" y2="217.251" gradientUnits="userSpaceOnUse">
<stop offset="0.046875" stop-color="white"/>
<stop offset="0.427083" stop-color="#DFF4FF"/>
<stop offset="0.994792" stop-color="#0E42C8"/>
</linearGradient>
<linearGradient id="paint23_linear_3_651" x1="317.473" y1="324.866" x2="193.565" y2="230.328" gradientUnits="userSpaceOnUse">
<stop offset="0.280479" stop-color="white"/>
<stop offset="0.469567" stop-color="#FF79DA"/>
<stop offset="0.692708" stop-color="#3D3AE3" stop-opacity="0.9"/>
</linearGradient>
<linearGradient id="paint24_linear_3_651" x1="317.473" y1="311.649" x2="194.984" y2="194.091" gradientUnits="userSpaceOnUse">
<stop offset="0.161458" stop-color="white"/>
<stop offset="1" stop-color="white" stop-opacity="0"/>
</linearGradient>
<linearGradient id="paint25_linear_3_651" x1="210.636" y1="1.057" x2="181.768" y2="48.3588" gradientUnits="userSpaceOnUse">
<stop stop-color="#1AD6FF"/>
<stop offset="1" stop-color="#496BE4" stop-opacity="0.6"/>
<stop offset="1" stop-color="#1F3CA3"/>
</linearGradient>
<linearGradient id="paint26_linear_3_651" x1="231.392" y1="249.808" x2="181.3" y2="237.933" gradientUnits="userSpaceOnUse">
<stop stop-color="#81FF6C"/>
<stop offset="1" stop-color="#31F3FF"/>
</linearGradient>
<linearGradient id="paint27_linear_3_651" x1="265.475" y1="28.5338" x2="213.07" y2="23.6645" gradientUnits="userSpaceOnUse">
<stop stop-color="#FF79C9"/>
<stop offset="1" stop-color="#1F3CA3"/>
</linearGradient>
<linearGradient id="paint28_linear_3_651" x1="234.286" y1="34.4471" x2="199.506" y2="30.4535" gradientUnits="userSpaceOnUse">
<stop stop-color="#52FF6E"/>
<stop offset="1" stop-color="#31FFFF"/>
</linearGradient>
<linearGradient id="paint29_linear_3_651" x1="268.72" y1="296.345" x2="241.648" y2="200.265" gradientUnits="userSpaceOnUse">
<stop offset="0.103809" stop-color="white"/>
<stop offset="0.436548" stop-color="#FFAACE" stop-opacity="0.8"/>
<stop offset="0.71875" stop-color="#6F97FF" stop-opacity="0.8"/>
</linearGradient>
<linearGradient id="paint30_linear_3_651" x1="295.948" y1="262.956" x2="274.422" y2="220.347" gradientUnits="userSpaceOnUse">
<stop stop-color="white"/>
<stop offset="0.591466" stop-color="#FF94D4"/>
<stop offset="1" stop-color="#C994FF"/>
</linearGradient>
<linearGradient id="paint31_linear_3_651" x1="244.502" y1="220.86" x2="162.977" y2="201.532" gradientUnits="userSpaceOnUse">
<stop stop-color="#81FF6C"/>
<stop offset="1" stop-color="#31F3FF"/>
</linearGradient>
<linearGradient id="paint32_linear_3_651" x1="210.499" y1="233.334" x2="210.499" y2="165.706" gradientUnits="userSpaceOnUse">
<stop stop-color="white"/>
<stop offset="1" stop-color="white" stop-opacity="0"/>
</linearGradient>
<linearGradient id="paint33_linear_3_651" x1="272.629" y1="201.533" x2="211.998" y2="256.278" gradientUnits="userSpaceOnUse">
<stop offset="0.149863" stop-color="white"/>
<stop offset="0.300261" stop-color="#8CFF31"/>
<stop offset="0.449118" stop-color="#45C3EB"/>
<stop offset="1" stop-color="#72E6FF"/>
</linearGradient>
<linearGradient id="paint34_linear_3_651" x1="184.049" y1="235.803" x2="90.0768" y2="169.955" gradientUnits="userSpaceOnUse">
<stop stop-color="#6CFFED"/>
<stop offset="1" stop-color="#197F9F"/>
</linearGradient>
<linearGradient id="paint35_linear_3_651" x1="417.536" y1="158.814" x2="319.379" y2="56.038" gradientUnits="userSpaceOnUse">
<stop offset="0.464598" stop-color="white"/>
<stop offset="0.790313" stop-color="#6DF390"/>
<stop offset="1" stop-color="#21CAFF" stop-opacity="0.9"/>
</linearGradient>
<linearGradient id="paint36_linear_3_651" x1="151.256" y1="201.533" x2="208.999" y2="256.198" gradientUnits="userSpaceOnUse">
<stop offset="0.125" stop-color="white"/>
<stop offset="0.297772" stop-color="#8CFF31"/>
<stop offset="0.447917" stop-color="#5BF5FF"/>
</linearGradient>
<linearGradient id="paint37_linear_3_651" x1="140.378" y1="282.434" x2="132.031" y2="220.347" gradientUnits="userSpaceOnUse">
<stop stop-color="#DFF4FF"/>
<stop offset="0.994792" stop-color="#0E42C8"/>
</linearGradient>
</defs>
</svg>
