<svg width="100" height="100" viewBox="0 0 100 100" fill="none" xmlns="http://www.w3.org/2000/svg">
<path d="M58.5033 5.44198H23.1291C20.7837 5.44198 18.5343 6.38088 16.8758 8.05212C15.2173 9.72336 14.2856 11.9901 14.2856 14.3535V85.646C14.2856 88.0095 15.2173 90.2762 16.8758 91.9474C18.5343 93.6187 20.7837 94.5576 23.1291 94.5576H76.1903C78.5358 94.5576 80.7852 93.6187 82.4437 91.9474C84.1021 90.2762 85.0339 88.0095 85.0339 85.646V32.1767L58.5033 5.44198ZM38.3665 74.1145C39.5825 74.1145 40.9356 73.8426 41.7359 73.5263L42.3461 76.7033C41.6033 77.0775 39.9319 77.4786 37.7608 77.4786C31.5836 77.4786 28.3999 73.6065 28.3999 68.4734C28.3955 62.3334 32.7465 58.9113 38.1543 58.9113C40.2502 58.9113 41.8376 59.3391 42.554 59.7134L41.7315 62.9483C40.6539 62.5039 39.4999 62.2782 38.3356 62.2844C35.1254 62.2844 32.6315 64.236 32.6315 68.2417C32.6359 71.842 34.7628 74.1145 38.3665 74.1145ZM49.3812 77.4786C47.3427 77.4786 45.3264 76.9483 44.3182 76.3869L45.1407 73.0183C46.2284 73.5798 47.8999 74.1412 49.6244 74.1412C51.4815 74.1412 52.4631 73.3659 52.4631 72.1896C52.4631 71.0667 51.6142 70.4251 49.4652 69.6498C46.4938 68.6071 44.5614 66.954 44.5614 64.334C44.5614 61.264 47.104 58.9113 51.3223 58.9113C53.3342 58.9113 54.8199 59.3391 55.8812 59.8159L54.9791 63.1042C53.8143 62.5322 52.534 62.2394 51.2383 62.2487C49.4873 62.2487 48.6427 63.0552 48.6427 63.9865C48.6427 65.1361 49.6509 65.644 51.9546 66.5263C55.1118 67.7026 56.5975 69.3601 56.5975 71.8955C56.5931 74.9165 54.2849 77.4786 49.3812 77.4786ZM63.7077 77.4786C61.6693 77.4786 59.6529 76.9483 58.6448 76.3869L59.4672 73.0183C60.555 73.5798 62.2264 74.1412 63.9509 74.1412C65.808 74.1412 66.7897 73.3659 66.7897 72.1896C66.7897 71.0667 65.9407 70.4251 63.7917 69.6498C60.8203 68.6071 58.888 66.954 58.888 64.334C58.888 61.264 61.4305 58.9113 65.6488 58.9113C67.6607 58.9113 69.1465 59.3391 70.2077 59.8159L69.3056 63.1042C68.1409 62.5322 66.8606 62.2394 65.5648 62.2487C63.8138 62.2487 62.9693 63.0552 62.9693 63.9865C62.9693 65.1361 63.9774 65.644 66.2812 66.5263C69.4383 67.7026 70.924 69.3601 70.924 71.8955C70.924 74.9165 68.6114 77.4786 63.7077 77.4786ZM58.5033 36.6324H54.0815V14.3535L76.1903 36.6324H58.5033Z" fill="black"/>
</svg>
