<svg width="100" height="100" viewBox="0 0 100 100" fill="none" xmlns="http://www.w3.org/2000/svg">
<g clip-path="url(#clip0_0_312)">
<path d="M14.2856 16.7969C14.2856 7.5 21.7856 0 31.0825 0H47.8794V33.5938H31.0825C21.7856 33.5938 14.2856 26.0937 14.2856 16.7969Z" fill="#F24E1E"/>
<path d="M49.9998 0H66.7967C76.0936 0 83.5936 7.5 83.5936 16.7969C83.5936 26.0937 76.0936 33.5938 66.7967 33.5938H49.9998V0Z" fill="#FF7262"/>
<path d="M14.2856 50.1302C14.2856 40.8333 21.7856 33.3333 31.0825 33.3333H47.8794V66.9271H31.0825C21.7856 66.9271 14.2856 59.4271 14.2856 50.1302Z" fill="#A259FF"/>
<path d="M83.5936 50.1302C83.5936 59.4271 76.0936 66.9271 66.7967 66.9271C57.4998 66.9271 49.9998 59.4271 49.9998 50.1302C49.9998 40.8333 57.4998 33.3333 66.7967 33.3333C76.0936 33.3333 83.5936 40.8333 83.5936 50.1302Z" fill="#1ABCFE"/>
<path d="M31.0825 100.26C40.3794 100.26 47.8794 92.7604 47.8794 83.4635V66.6666H31.0825C21.7856 66.6666 14.2856 74.1666 14.2856 83.4635C14.2856 92.7604 21.7856 100.26 31.0825 100.26Z" fill="#0ACF83"/>
</g>
<defs>
<clipPath id="clip0_0_312">
<rect width="99.1414" height="99.1414" fill="white" transform="scale(1.00866)"/>
</clipPath>
</defs>
</svg>
