<svg width="100" height="100" viewBox="0 0 100 100" fill="none" xmlns="http://www.w3.org/2000/svg">
<path fill-rule="evenodd" clip-rule="evenodd" d="M20.8334 4.16663C16.4131 4.16663 12.1739 5.92258 9.04825 9.04819C5.92264 12.1738 4.16669 16.413 4.16669 20.8333V79.1666C4.16669 83.5869 5.92264 87.8261 9.04825 90.9517C12.1739 94.0773 16.4131 95.8333 20.8334 95.8333H79.1667C83.587 95.8333 87.8262 94.0773 90.9518 90.9517C94.0774 87.8261 95.8334 83.5869 95.8334 79.1666V20.8333C95.8334 16.413 94.0774 12.1738 90.9518 9.04819C87.8262 5.92258 83.587 4.16663 79.1667 4.16663H20.8334ZM28.7917 18.75L50 39.9583H28.7917V61.175L51.5167 85.4166V61.175H71.2125L50.0042 39.9625H71.2125V18.75H28.7917Z" fill="black"/>
</svg>
