<svg width="100" height="100" viewBox="0 0 100 100" fill="none" xmlns="http://www.w3.org/2000/svg">
<path d="M19.762 79.9661V69.9661H9.76195V79.9661H4.76195V54.9661H9.76195V64.9661H19.762V54.9661H24.762V79.9661H19.762ZM34.762 79.9661V59.9661H27.762V54.9661H46.262V59.9661H39.762V79.9661H34.762ZM49.762 79.9661V54.9661H54.762L61.762 71.9661H62.262L69.762 54.9661H74.762V79.9661H69.762V64.4661H69.262L63.762 76.9661H60.762L55.262 64.4661H54.762V79.9661H49.762ZM94.762 79.9661H79.762V54.9661H84.762V74.9661H94.762V79.9661ZM46.762 20.9661L35.262 32.4661L46.762 43.9661L43.762 49.9661L26.262 32.4661L43.762 14.9661L46.762 20.9661ZM52.762 43.9661L64.262 32.4661L52.762 20.9661L55.762 14.9661L73.262 32.4661L55.762 49.9661L52.762 43.9661Z" fill="black"/>
</svg>
