<svg width="100" height="100" viewBox="0 0 100 100" fill="none" xmlns="http://www.w3.org/2000/svg">
<g clip-path="url(#clip0_0_308)">
<path d="M17.6814 1.35626H82.0981C91.8346 1.35626 99.7796 9.22335 99.7796 19.0377V80.9619C99.7796 90.6984 91.9125 98.6434 82.0981 98.6434H17.6814C7.86701 98.5655 -7.67251e-05 90.6984 -7.67251e-05 80.884V19.0377C-7.67251e-05 9.22335 7.86701 1.35626 17.6814 1.35626Z" fill="#330000"/>
<path d="M48.2147 59.6094H32.7142L29.5985 69.375C29.5207 69.7656 29.2091 70 28.8196 69.9219H21.0304C20.5631 69.9219 20.4852 69.6875 20.5631 69.1406L33.9605 30.5469C34.1163 30.1562 34.1942 29.6875 34.35 29.1406C34.5057 28.2812 34.5836 27.3437 34.5836 26.4062C34.5057 26.1719 34.7394 26.0156 34.8952 25.9375H45.6443C45.9559 25.9375 46.1117 26.0937 46.1895 26.25L61.3785 69.1406C61.5343 69.6094 61.3785 69.8438 60.989 69.8438H52.2651C51.9536 69.9219 51.7199 69.6875 51.5641 69.375L48.2147 59.6094ZM35.1289 51.0938H45.6443C45.4106 50.2344 45.0991 49.1406 44.7096 48.125C44.3201 47.0313 43.9307 45.7813 43.6191 44.5313C43.2297 43.2031 42.8402 41.9531 42.4507 40.7031C42.0613 39.375 41.6718 38.2031 41.3602 37.0312C41.0487 35.8594 40.7371 34.7656 40.4255 33.75H40.3476C39.9582 35.5469 39.4908 37.3437 38.9456 39.1406C38.3225 41.1719 37.6993 43.2031 36.9983 45.3125C36.3752 47.4219 35.752 49.375 35.1289 51.0938ZM70.6476 33.3594C69.2456 33.4375 67.9214 32.8906 66.9867 31.875C66.052 30.8594 65.5068 29.4531 65.5847 28.0469C65.5068 26.6406 66.052 25.3125 67.0646 24.375C68.0772 23.4375 69.4014 22.8906 70.7255 22.8906C72.3613 22.8906 73.6075 23.3594 74.5422 24.375C75.4769 25.3906 75.9443 26.7187 75.9443 28.0469C76.0222 29.4531 75.4769 30.8594 74.4643 31.875C73.4517 32.8906 72.0497 33.4375 70.6476 33.3594ZM65.9741 69.5313V37.4219C65.9741 37.0312 66.1299 36.875 66.5194 36.875H74.7759C75.1654 36.875 75.3212 37.1094 75.3212 37.4219V69.5313C75.3212 70 75.1654 70.2344 74.7759 70.2344H66.5973C66.2078 70.1563 65.9741 69.9219 65.9741 69.5313Z" fill="#FF9A00"/>
</g>
<defs>
<clipPath id="clip0_0_308">
<rect width="99.1414" height="99.4381" fill="white" transform="scale(1.00565)"/>
</clipPath>
</defs>
</svg>
