<svg width="28" height="28" viewBox="0 0 28 28" fill="none" xmlns="http://www.w3.org/2000/svg">
<path d="M25.6662 19.7408V23.2408C25.6675 23.5657 25.6009 23.8873 25.4708 24.185C25.3406 24.4827 25.1497 24.7499 24.9103 24.9696C24.6708 25.1893 24.3882 25.3565 24.0804 25.4606C23.7726 25.5647 23.4464 25.6033 23.1228 25.5741C19.5328 25.184 16.0843 23.9573 13.0545 21.9924C10.2356 20.2012 7.84574 17.8113 6.05452 14.9924C4.08282 11.9488 2.8558 8.48359 2.47285 4.87743C2.44369 4.55481 2.48204 4.22965 2.58543 3.92266C2.68883 3.61567 2.85501 3.33357 3.07341 3.09432C3.2918 2.85508 3.55762 2.66393 3.85394 2.53304C4.15025 2.40215 4.47058 2.3344 4.79452 2.3341H8.29452C8.86071 2.32852 9.40961 2.52902 9.8389 2.89822C10.2682 3.26742 10.5486 3.78012 10.6278 4.34076C10.7756 5.46084 11.0495 6.56061 11.4445 7.6191C11.6015 8.03668 11.6355 8.4905 11.5424 8.92679C11.4494 9.36308 11.2332 9.76356 10.9195 10.0808L9.43785 11.5624C11.0987 14.4832 13.517 16.9016 16.4378 18.5624L17.9195 17.0808C18.2367 16.7671 18.6372 16.5509 19.0735 16.4579C19.5098 16.3648 19.9636 16.3988 20.3812 16.5558C21.4397 16.9507 22.5394 17.2247 23.6595 17.3724C24.2262 17.4524 24.7438 17.7378 25.1138 18.1745C25.4838 18.6112 25.6804 19.1686 25.6662 19.7408Z" stroke="#EEEEEE" stroke-width="2.33333" stroke-linecap="round" stroke-linejoin="round"/>
</svg>
