<svg width="28" height="28" viewBox="0 0 28 28" fill="none" xmlns="http://www.w3.org/2000/svg">
<path fill-rule="evenodd" clip-rule="evenodd" d="M5.83333 1.4585C4.98243 1.4585 4.16638 1.79652 3.5647 2.3982C2.96302 2.99987 2.625 3.81593 2.625 4.66683C2.625 5.51773 2.96302 6.33378 3.5647 6.93546C4.16638 7.53714 4.98243 7.87516 5.83333 7.87516C6.68424 7.87516 7.50029 7.53714 8.10197 6.93546C8.70365 6.33378 9.04167 5.51773 9.04167 4.66683C9.04167 3.81593 8.70365 2.99987 8.10197 2.3982C7.50029 1.79652 6.68424 1.4585 5.83333 1.4585ZM4.375 4.66683C4.375 4.28006 4.52865 3.90912 4.80214 3.63563C5.07563 3.36214 5.44656 3.2085 5.83333 3.2085C6.22011 3.2085 6.59104 3.36214 6.86453 3.63563C7.13802 3.90912 7.29167 4.28006 7.29167 4.66683C7.29167 5.0536 7.13802 5.42454 6.86453 5.69803C6.59104 5.97152 6.22011 6.12516 5.83333 6.12516C5.44656 6.12516 5.07563 5.97152 4.80214 5.69803C4.52865 5.42454 4.375 5.0536 4.375 4.66683ZM2.625 9.3335C2.625 9.10143 2.71719 8.87887 2.88128 8.71478C3.04538 8.55068 3.26794 8.4585 3.5 8.4585H8.16667C8.39873 8.4585 8.62129 8.55068 8.78539 8.71478C8.94948 8.87887 9.04167 9.10143 9.04167 9.3335V24.5002C9.04167 24.7322 8.94948 24.9548 8.78539 25.1189C8.62129 25.283 8.39873 25.3752 8.16667 25.3752H3.5C3.26794 25.3752 3.04538 25.283 2.88128 25.1189C2.71719 24.9548 2.625 24.7322 2.625 24.5002V9.3335ZM4.375 10.2085V23.6252H7.29167V10.2085H4.375ZM10.7917 9.3335C10.7917 9.10143 10.8839 8.87887 11.0479 8.71478C11.212 8.55068 11.4346 8.4585 11.6667 8.4585H16.3333C16.5654 8.4585 16.788 8.55068 16.9521 8.71478C17.1161 8.87887 17.2083 9.10143 17.2083 9.3335V9.83983L17.7158 9.62166C18.5909 9.24786 19.5192 9.01363 20.4668 8.9275C23.7043 8.6335 26.5417 11.1768 26.5417 14.4435V24.5002C26.5417 24.7322 26.4495 24.9548 26.2854 25.1189C26.1213 25.283 25.8987 25.3752 25.6667 25.3752H21C20.7679 25.3752 20.5454 25.283 20.3813 25.1189C20.2172 24.9548 20.125 24.7322 20.125 24.5002V16.3335C20.125 15.9467 19.9714 15.5758 19.6979 15.3023C19.4244 15.0288 19.0534 14.8752 18.6667 14.8752C18.2799 14.8752 17.909 15.0288 17.6355 15.3023C17.362 15.5758 17.2083 15.9467 17.2083 16.3335V24.5002C17.2083 24.7322 17.1161 24.9548 16.9521 25.1189C16.788 25.283 16.5654 25.3752 16.3333 25.3752H11.6667C11.4346 25.3752 11.212 25.283 11.0479 25.1189C10.8839 24.9548 10.7917 24.7322 10.7917 24.5002V9.3335ZM12.5417 10.2085V23.6252H15.4583V16.3335C15.4583 15.4826 15.7964 14.6665 16.398 14.0649C16.9997 13.4632 17.8158 13.1252 18.6667 13.1252C19.5176 13.1252 20.3336 13.4632 20.9353 14.0649C21.537 14.6665 21.875 15.4826 21.875 16.3335V23.6252H24.7917V14.4435C24.7917 12.2222 22.8538 10.4675 20.6267 10.6705C19.8615 10.7399 19.112 10.9289 18.4053 11.2305L16.6787 11.9713C16.5455 12.0285 16.4002 12.0518 16.2558 12.0389C16.1114 12.0261 15.9725 11.9776 15.8515 11.8978C15.7305 11.8179 15.6313 11.7093 15.5626 11.5817C15.494 11.454 15.4582 11.3113 15.4583 11.1663V10.2085H12.5417Z" fill="#EEEEEE" fill-opacity="0.75"/>
</svg>
