<svg width="28" height="28" viewBox="0 0 28 28" fill="none" xmlns="http://www.w3.org/2000/svg">
<g clip-path="url(#clip0_0_53)">
<path d="M26.2972 7.49033C26.1586 6.93664 25.8763 6.42933 25.4789 6.01963C25.0815 5.60994 24.583 5.31237 24.0338 5.15699C22.0272 4.66699 14.0005 4.66699 14.0005 4.66699C14.0005 4.66699 5.97384 4.66699 3.96717 5.20366C3.41796 5.35904 2.91948 5.65661 2.52208 6.0663C2.12467 6.47599 1.84242 6.9833 1.70384 7.53699C1.33659 9.57347 1.15695 11.6394 1.16717 13.7087C1.15408 15.7935 1.33373 17.8752 1.70384 19.927C1.85662 20.4635 2.1452 20.9515 2.54167 21.3439C2.93815 21.7363 3.42913 22.0198 3.96717 22.167C5.97384 22.7037 14.0005 22.7037 14.0005 22.7037C14.0005 22.7037 22.0272 22.7037 24.0338 22.167C24.583 22.0116 25.0815 21.714 25.4789 21.3044C25.8763 20.8947 26.1586 20.3873 26.2972 19.8337C26.6616 17.8125 26.8412 15.7624 26.8338 13.7087C26.8469 11.6238 26.6673 9.54214 26.2972 7.49033V7.49033Z" stroke="#EEEEEE" stroke-opacity="0.75" stroke-width="2.33333" stroke-linecap="round" stroke-linejoin="round"/>
<path d="M11.3755 17.5245L18.0838 13.7095L11.3755 9.89453V17.5245Z" stroke="#EEEEEE" stroke-opacity="0.75" stroke-width="2.33333" stroke-linecap="round" stroke-linejoin="round"/>
</g>
<defs>
<clipPath id="clip0_0_53">
<rect width="28" height="28" fill="white"/>
</clipPath>
</defs>
</svg>
