<svg width="211" height="865" viewBox="0 0 211 865" fill="none" xmlns="http://www.w3.org/2000/svg">
<path d="M122.458 848.236C110.71 837.95 107.903 827.763 106.324 817.391C107.014 814.647 106.477 808.387 104.194 802.272C90.8233 768.388 64.981 721.587 51.1227 684.348C49.3569 679.728 47.6382 675.105 45.9277 670.382C36.591 644.522 30.2574 619.034 24.8737 594.173C24.5443 592.647 25.3638 591.507 25.2183 590.817C23.8343 584.325 20.5505 573.7 19.3841 567.271C16.8465 553.752 12.4356 530.42 11.4249 517.988C10.9752 512.718 10.2976 507.33 12.4647 504.937C12.4634 504.923 12.4621 504.909 12.4606 504.896C12.2482 502.946 9.87784 502.235 9.67898 501.746C9.68031 501.74 9.68164 501.734 9.68297 501.728C9.05165 500.151 10.0098 495.738 9.78357 494.841C9.74887 494.705 8.24215 495.787 8.41467 493.477C8.42922 493.273 9.55925 493.296 9.31343 491.422C9.24456 490.943 6.69544 484.866 6.3678 483.065C5.22903 477.111 4.97015 462.54 4.34023 455.319C4.24265 454.225 3.53443 453.629 3.42303 452.462C3.36458 451.858 3.99636 450.896 3.97733 450.713C3.88271 449.907 0.389194 446.588 6.82925 447.371C6.14235 443.715 4.1321 444.944 2.76337 444.967C2.26747 440.944 5.13386 438.789 1.89787 437.951C0.98551 418.035 0.970393 398.076 1.60183 378.547C1.08451 378.535 0.567191 378.523 0.0498696 378.511C0.554232 377.152 0.748777 376.007 0.790945 375.011C0.92918 371.755 -0.533388 369.977 1.81717 367.506C1.20416 365.458 0.598267 363.398 -3.81821e-06 361.332C1.85495 333.659 4.23362 304.923 8.40784 277.216C12.0585 252.309 17.2196 227.436 23.8077 203.818C24.4024 201.685 25.599 201.483 26.5974 198.005C27.6979 194.173 28.0331 188.469 29.5572 183.48C30.8875 179.103 33.8706 172.993 35.5606 168.222C35.9378 167.15 35.5263 166.147 35.5692 166.025C35.8261 165.311 36.8909 165.606 37.1439 164.919C37.442 164.104 36.9863 162.851 37.3464 161.901C37.5387 161.391 37.725 160.87 37.9036 160.35C38.9508 157.301 39.7267 154.298 39.8667 153.926C40.6852 151.781 41.874 151.631 41.9445 151.456C42.8689 149.094 41.6455 149.686 41.899 149.104C43.2299 146.063 46.27 144.651 45.5006 139.659C46.3159 140.065 47.1313 140.471 47.9468 140.877C49.5322 137.796 46.5323 139.165 46.3473 138.361C46.2887 138.024 48.9608 131.142 49.1843 130.636C49.9756 128.822 51.1283 129.161 51.1992 129.005C51.3748 128.614 51.7155 123.487 53.5478 121.429C55.711 119.01 56.8459 123.148 57.5249 122.597C57.6382 122.506 58.4438 119.457 59.3065 119.308C60.2364 119.141 59.3162 121.705 59.6562 121.779C59.8883 121.829 62.9856 118.133 63.7728 119.331C64.6198 120.363 61.2164 125.63 61.2928 127.048C61.3063 127.28 62.7721 127.364 62.7584 127.56C62.6806 128.326 58.116 141.676 57.6959 142.224C57.3254 141.319 56.9588 140.404 56.5861 139.508C56.212 140.4 55.8271 141.326 55.4505 142.23C55.4133 140.742 55.3776 139.253 55.3398 137.776C49.6625 138.003 52.7275 145.663 55.149 146.757C56.2709 147.252 60.4738 144.641 61.0677 148.596C61.5372 148.186 62.0099 147.768 62.4778 147.365C62.343 146.158 62.2112 144.945 62.0822 143.727C61.5359 144.323 60.9907 144.917 60.4465 145.509C60.1858 145.134 59.9253 144.759 59.665 144.384C59.7766 142.227 59.8884 140.08 60.0051 137.928C60.6092 137.007 61.5625 137.569 62.0003 136.942C67.4716 129.202 62.3545 133.707 64.7699 128.241C65.6005 127.629 66.435 127.006 67.2627 126.405C64.8899 125.894 67.1876 123.905 67.2692 120.55C67.8778 121.168 68.4883 121.781 69.0962 122.401C70.2308 117.916 77.0768 110.418 72.1772 111.354C72.8762 110.487 73.5767 109.618 74.2785 108.746C73.9162 107.671 73.5588 106.583 73.1953 105.512C73.6854 104.384 74.1774 103.253 74.6714 102.118C75.0316 102.242 75.3918 102.365 75.752 102.489C75.4208 103.416 75.0909 104.341 74.7622 105.264C76.1026 104.964 77.4435 104.663 78.7849 104.361C78.8488 103.614 78.9138 102.864 78.9787 102.116C76.914 104.612 76.5875 100.225 75.4738 98.7997C75.8102 96.199 78.2413 95.3257 78.6153 94.5562C78.79 94.1969 77.1181 88.5207 80.1044 91.5925C80.5001 89.1306 80.8933 86.6818 81.2936 84.2186C81.8977 83.4254 82.5027 82.6307 83.1086 81.8344C84.0831 84.3986 88.1789 79.4961 87.3581 83.9101C86.7526 87.1956 84.8942 87.3939 84.3686 88.8709C83.8922 90.2038 84.7035 91.2815 84.2236 92.7505C80.9887 102.596 77.9491 110.443 74.1839 119.577C73.4361 121.388 73.3777 123.221 72.8663 124.441C72.2902 125.81 71.5678 123.588 71.2679 125.483C70.9568 127.47 71.9103 128.251 71.7605 128.749C71.6656 129.06 70.34 129.696 70.0274 130.592C68.7474 134.255 67.8315 140.001 67.645 140.53C67.4261 141.106 62.9729 151.277 62.6498 151.727C62.4717 151.965 59.0151 150.177 62.1224 153.804C61.9514 154.554 61.7817 155.302 61.6135 156.047C60.9236 155.688 60.2338 155.328 59.544 154.967C60.8877 160.154 59.8185 158.199 58.6789 162.391C58.3067 163.763 57.8909 165.204 57.4453 166.693C54.5435 176.347 50.2791 188.545 47.7162 198.192C47.0597 200.666 47.6628 201.889 46.8965 204.819C46.1688 207.554 41.559 213.971 45.654 213.424C40.8187 218.657 46.0589 221.113 41.8379 223.266C42.2398 223.769 42.6424 224.27 43.0458 224.77C40.0548 227.54 41.6749 229.057 41.0364 232.775C40.7677 234.371 38.9213 232 40.6967 235.803C40.3611 236.366 40.0288 236.919 39.6939 237.487C39.1739 237.214 38.6547 236.938 38.1344 236.667C37.7442 240.335 37.4155 240.478 39.5804 240.56C38.8031 242.195 38.0385 243.805 37.2744 245.448C37.9088 245.814 38.5435 246.178 39.1785 246.542C40.4003 245.92 48.21 207.026 49.3775 201.651C52.6626 195.899 54.5232 182.997 56.4545 178.172C57.2277 176.222 58.9993 175.859 60.1022 173.033C60.7102 171.478 60.9142 169.564 61.0646 167.868C61.1767 166.529 61.2497 165.345 61.4508 164.657C62.9092 159.482 71.2924 135.807 67.6655 152.624C68.5525 152.405 69.4398 152.186 70.3274 151.966C70.0131 144.704 70.7648 147.523 72.839 142.308C73.7193 140.097 73.9384 134.216 77.1399 135.668C76.3096 140.039 73.7398 144.068 72.5515 147.713C72.4332 148.073 72.4896 152.875 71.3394 154.938C70.3014 156.786 67.5826 154.388 69.6933 159.901C65.1416 161.992 67.6895 164.879 67.74 165.857C67.8354 167.531 66.066 167.131 65.3867 168.539C65.2793 168.76 65.204 168.98 65.1536 169.195C64.8482 170.489 65.4134 171.596 65.359 171.787C64.6595 173.988 61.1756 185.603 60.3321 185.918C60.169 185.361 60.0067 184.801 59.8454 184.24C58.4249 187.087 60.3835 187.011 60.3505 187.869C60.1623 188.459 59.9754 189.047 59.7897 189.633C59.4944 189.288 59.1994 188.943 58.9046 188.597C57.9049 192.162 59.9905 189.856 58.4422 194.884C57.4521 198.106 55.0801 201.02 55.0927 201.365C55.0957 201.466 56.3367 200.729 56.0825 202.076C55.6545 204.318 54.5593 208.076 53.1485 208.142C53.0287 209.266 54.3189 209.528 54.3076 209.678C54.239 210.329 51.7364 221.168 51.3265 223.122C50.1288 228.521 48.3629 234.409 47.2012 240.315C47.0814 240.921 46.3515 240.345 46.2368 240.953C46.0491 241.92 46.2004 247.201 46.1328 247.959C45.9382 249.858 44.3764 254.644 44.5959 255.488C44.6267 255.605 46.0773 254.234 46.0287 256.187C45.9766 258.356 44.7116 256.921 44.6728 257.031C43.2813 261.186 43.8042 264.08 43.4528 267.034C43.34 267.982 41.8803 269.525 41.9734 270.917C41.9834 271.078 43.0865 270.964 43.1105 271.124C43.293 273.238 41.0172 274.777 40.7391 275.631C40.0615 277.714 41.7 276.799 41.6908 276.911C41.4917 278.344 40.6493 280.173 40.3664 282.347C40.3637 282.368 40.3611 282.388 40.3585 282.408C39.1097 292.089 38.0747 299.999 36.7871 310.322C36.6268 311.62 35.4356 313.054 35.4128 313.254C35.3543 313.871 36.5731 313.825 36.359 315.601C35.9059 319.346 35.6353 322.833 35.2958 326.549C35.2275 327.297 34.0847 327.526 34.0137 328.095C33.775 330.019 36.2296 336.749 32.5889 336.611C35.5569 340.633 32.6333 342.97 32.5005 346.044C32.1689 353.307 32.4462 364.663 31.9033 371.84C31.7844 373.353 30.838 374.042 30.7737 374.889C30.7629 375.029 30.7563 375.229 30.7533 375.479C30.7157 377.919 31.0717 385.091 30.9423 385.508C30.6572 386.389 26.5325 385.853 30.1194 390.437C30.3795 393.134 28.6916 392.81 28.6022 393.37C27.9412 397.723 31.7816 401.892 28.3139 401.154C29.3278 406.203 31.3288 409.429 28.1575 411.579C29.7333 411.512 30.7444 413.848 30.249 416.746C27.503 413.894 25.7993 414.309 26.1074 407.161C26.1126 407.049 27.2575 407.237 27.2627 407.124C27.3162 406.117 26.6967 403.989 26.7315 402.265C26.7664 400.524 27.5609 401.479 27.5357 400.784C27.5114 400.15 26.4204 400.186 26.3935 399.27C26.3143 396.284 26.0002 393.647 25.9762 391.96C25.9617 390.886 26.9199 389.692 26.9208 388.87C26.9111 385.811 26.2756 379.501 26.3744 375.41C26.3788 375.217 26.3848 375.028 26.3925 374.845C26.4311 373.999 27.4998 374.368 27.6224 372.528C27.6368 372.318 26.5293 371.498 26.3312 369.875C26.1333 368.254 26.7215 366.997 26.6321 365.959C26.5583 365.083 25.5513 365.419 25.5393 363.628C25.4835 362.143 26.903 345.216 27.1637 344.297C27.466 342.979 28.9 342.434 28.7773 341.617C28.7492 341.472 27.4141 341.15 27.3474 340.649C26.179 332.399 29.6031 314.431 30.7981 305.169C31.7836 297.024 32.7743 289.155 33.8513 281.351C35.343 270.544 37.0322 259.748 39.3033 248.533C39.149 248.138 38.9954 247.742 38.842 247.346C38.4005 249.303 37.9718 251.246 37.5515 253.197C36.9264 253.078 36.3014 252.959 35.6763 252.84C35.021 255.473 36.5716 255.426 37.475 255.536C36.896 256.433 36.3184 257.336 35.7425 258.243C37.7396 259.517 35.0097 265.766 34.4054 269.155C34.0013 271.36 34.3751 274.122 34.1124 275.264C33.5577 277.695 32.224 277.4 32.1691 277.59C32.1147 277.793 32.3471 279.375 32.41 281.116C32.4438 282.09 32.4247 283.116 32.2694 283.992C31.6337 287.634 29.4877 287.72 30.5258 293.003C28.5245 299.289 28.1592 306.546 27.5953 313.549C25.8034 312.011 26.9698 318.477 26.6885 321.297C24.9094 338.003 23.2144 358.387 22.2347 375.346C22.2027 375.879 22.1713 376.41 22.1403 376.94C22.0121 379.17 20.8519 380.827 20.8789 382.079C20.8926 382.75 22.2385 383.053 22.0538 383.988C22.0187 384.15 20.7557 384.264 20.5578 386.003C20.0416 390.347 22.2354 401.17 19.8853 403.965C20.5292 418.896 21.6377 433.85 23.2396 448.733C22.7568 449.147 22.2744 449.563 21.7924 449.98C24.6334 452.604 24.145 463.898 24.9042 469.337C26.1774 478.879 28.6394 490.952 30.0127 499.219C30.1794 500.234 30.0918 501.187 30.0358 502.135C29.9894 502.847 29.9613 503.556 30.0839 504.288C30.2062 505.01 31.306 505.759 31.432 506.514C32.8478 514.938 33.8061 526.55 35.3777 535.06C38.9357 554.378 42.4773 572.601 47.1599 592.147C52.8092 615.542 59.4813 638.837 68.3567 661.979C83.7963 702.248 102.143 741.742 121.049 779.641C121.439 780.433 120.424 780.892 120.719 781.498C122.472 785.102 127.245 792.566 129.007 796.38C130.485 799.508 130.922 804.657 132.842 804.862C131.032 794.005 124.237 781.547 118.98 769.308C118.604 768.441 119.497 767.859 119.462 767.747C118.825 765.641 118.11 767.479 116.661 764.709C116.165 763.777 114.878 753.484 112.381 756.023C112.52 753.304 106.018 738.123 104.289 735.377C103.758 734.556 103.143 735.597 103.016 735.444C102.464 734.776 103.552 733.854 103.267 733.154C102.499 731.294 99.3834 727.146 98.9928 726.257C98.0923 724.25 96.4026 717.723 94.9727 715.107C93.6824 712.76 92.57 713.799 91.5193 711.712C90.6987 710.067 92.5833 711.393 91.3115 707.516C90.6747 705.598 87.1178 699.404 86.453 697.794C85.7727 696.163 85.8576 694.127 84.8879 691.938C83.4827 688.778 80.2643 682.065 78.7427 678.944C78.6519 678.756 77.4267 678.693 77.2594 678.205C76.9115 677.193 78.3125 676.987 78.1474 676.183C77.9764 675.426 73.2164 663.489 72.1446 660.56C72.102 660.446 72.0649 660.346 72.0339 660.262C71.4565 658.694 70.2867 657.884 69.9748 657.004C69.7323 656.313 70.7862 655.849 70.5494 655.152C70.4725 654.938 68.8761 653.442 68.2537 651.58C67.6581 649.843 66.3504 642.936 66.1216 642.165C65.9633 641.664 65.3626 642.462 64.9068 640.987C64.4943 639.64 65.2246 638.435 64.9976 637.664C64.47 635.877 62.9957 634.171 62.4156 632.274C60.7724 626.863 62.1326 626.759 62.0749 626.427C61.9259 625.496 60.6667 625.47 60.5568 625.181C60.0948 623.957 59.0073 620.949 58.6518 619.846C58.2066 618.471 59.1422 617.569 58.7421 616.099C58.4409 615.005 56.7561 613.061 56.039 610.567C54.4086 604.93 52.5085 598.228 51.2157 592.64C50.8287 590.974 51.7846 590.479 51.6905 589.965C51.1987 587.263 49.7187 586.031 49.5571 585.265C48.3898 579.793 48.0586 569.697 47.1705 564.623C46.7948 562.559 44.1348 553.722 43.3115 548.607C43.2146 548.023 44.1227 548.412 43.8723 547.789C43.2736 546.301 41.666 546.758 41.5655 545.963C41.5219 545.578 42.2791 544.536 42.1627 543.414C41.5607 537.603 40.1345 533.789 39.7175 531.172C38.1376 521.238 36.6525 511.222 35.2597 501.314C33.0807 485.864 31.3629 470.557 30.0935 456.019C29.8577 453.332 28.5745 450.107 29.2127 445.973C29.7187 445.808 30.2248 445.643 30.7309 445.479C30.2129 445.377 29.6949 445.276 29.177 445.174C28.5517 440.61 27.7772 438.92 28.1286 434.187C28.1574 433.777 30.4417 432.417 27.4688 431.823C29.329 427.047 27.3311 429.736 26.9542 426.28C26.5847 422.843 27.0967 419.449 27.1263 416.106C28.1067 414.243 30.8191 421.828 30.8437 422.311C30.8699 423.113 29.452 424.028 29.4115 424.801C29.2891 427.104 30.567 429.271 29.2955 429.853C30.8369 432.747 29.942 429.086 31.2017 429.391C30.798 431.4 30.4025 433.4 30.017 435.422C34.265 436.143 29.5837 447.454 32.7425 446.45C32.1714 447.372 31.6019 448.293 31.0339 449.212C35.3725 452.689 32.7396 455.132 32.0522 460.343C32.5279 459.924 33.004 459.505 33.4806 459.088C33.7023 459.181 34.9765 463.547 32.6304 462.18C35.9864 466.468 31.1855 466.789 35.1062 470.499C35.833 472.875 33.6502 471.665 34.2122 476.008C34.5494 478.601 36.0082 481.67 36.4681 484.521C36.5711 485.182 35.4518 485.629 35.533 486.222C35.6151 486.817 36.7903 486.946 36.9176 487.651C37.1823 489.105 36.6619 491.15 36.8716 492.051C37.0567 492.863 38.2276 493.889 38.6852 495.862C39.3353 498.634 39.4445 499.985 39.3129 500.678C39.1195 501.665 38.4295 501.3 38.2442 501.984C37.9141 503.224 39.9263 503.77 40.0802 506.12C40.0945 506.356 38.8272 505.944 38.9944 506.691C39.1287 507.294 40.4491 507.391 41.0157 509.376C41.2287 510.163 43.5926 522.584 43.9625 524.481C44.4972 527.373 44.5841 534.058 45.1489 537.062C45.3622 538.22 46.6108 539.278 46.8334 540.507C47.5705 544.591 48.7407 551.133 49.7346 556.312C50.615 560.971 50.1033 569.615 52.6792 571.728C54.3606 578.193 53.0186 580.163 53.1029 580.662C53.3405 582.008 54.619 582.365 55.0577 584.027C60.6441 605.564 67.6985 634.217 75.2147 654.422C75.753 655.892 76.2974 657.35 76.8481 658.798C93.4606 702.981 114.442 746.36 135.157 787.892C135.678 787.779 136.2 787.666 136.721 787.554C134.544 782.375 132.338 776.021 129.984 770.871C126.833 764.012 119.902 754.866 120.667 748.306C121.948 750.243 122.315 754.079 123.933 753.245C122.281 749.58 120.647 745.908 119.016 742.194C118.309 742.664 117.602 743.133 116.896 743.602C114.872 739.939 113.177 735.916 111.295 732.147C110.968 731.49 110.495 732.282 110.222 731.703C109.918 731.053 110.827 731.168 110.776 731.044C110.02 729.391 109.071 729.205 108.99 729.001C108.784 728.479 109.646 728.566 109.16 727.005C108.259 724.098 105.542 722.901 108.853 722.195C108.455 721.317 108.056 720.432 107.655 719.539C106.729 719.677 105.804 719.814 104.878 719.95C105.738 712.977 98.782 712.973 102.1 707.92C100.954 707.223 99.8018 706.505 98.6558 705.798C99.2411 704.881 99.8265 703.963 100.412 703.044C99.6547 703.238 98.8971 703.432 98.1395 703.626C96.31 697.909 93.0613 692.539 90.9873 687.22C89.5627 683.559 89.498 682.579 88.1359 679.33C85.1649 672.201 89.4206 678.79 88.5916 672.17C87.833 672.831 87.0747 673.492 86.3167 674.153C85.5994 673.278 84.8819 672.397 84.1765 671.543C84.6286 670.575 85.0808 669.605 85.5334 668.634C80.601 666.997 82.8534 663.817 82.6995 663.414C82.5651 663.078 79.8688 662.794 80.3947 658.386C79.1718 659.695 78.8843 659.067 78.8979 658.03C78.9106 656.934 79.267 655.386 79.2102 655.202C79.0929 654.859 76.8546 650.831 76.2773 649.058C75.8213 647.686 75.4845 644.508 74.7784 642.484C74.1508 640.688 73.1487 641.217 73.0937 641.089C72.2741 638.878 73.5574 640.009 73.078 638.388C72.6009 636.768 71.2948 635.797 71.2657 635.421C71.2536 635.231 72.4338 635.506 72.2766 634.67C71.8629 632.447 69.7955 628.806 69.0908 626.32C68.8374 625.436 69.363 624.085 69.1059 623.102C68.7088 621.597 67.3783 621.218 67.162 620.333C67.0901 620.024 68.2878 617.605 67.3525 615.271C67.1727 614.831 63.0932 614.497 67.8628 611.283C67.0861 611.345 66.3093 611.407 65.5325 611.469C61.527 603.859 67.0174 600.069 60.7556 597.82C59.8965 591.778 62.9869 595.312 63.1461 594.585C63.2456 594.12 62.2043 592.347 62.1865 592.127C62.1602 591.739 62.8469 591.641 62.7445 591.233C60.829 583.775 60.3599 587.398 58.9945 585.208C55.7671 579.985 59.021 574.605 60.0009 584.73C60.3761 584.643 60.7513 584.555 61.1266 584.468C60.1989 582.136 58.9856 575.95 61.3545 577.573C63.1909 578.855 65.6297 593.575 65.7966 584.873C65.837 582.9 64.2006 582.258 66.1089 578.429C65.7701 576.267 62.2719 576.727 63.0057 573.524C61.9145 574.265 60.8242 575.007 59.7346 575.751C57.29 572.131 58.3319 566.778 57.0236 563.875C56.576 562.891 50.0821 560.328 55.9827 560.023C55.258 558.351 54.6688 549.922 53.8663 548.498C53.6727 548.155 50.5164 548.268 50.5686 542.732C50.8813 542.289 51.1943 541.846 51.5076 541.404C53.5399 546.062 53.0509 537.256 56.3911 539.047C55.233 540.077 55.1702 544.087 54.6351 544.829C53.7115 546.105 51.6502 543.227 52.8219 547.175C58.1515 548.768 54.5306 541.966 59.3445 542.194C56.1994 537.339 58.1609 536.427 58.0246 535.221C57.4367 530.074 56.3745 526.945 56.0758 522.048C54.9197 521.044 55.0848 529.992 55.6964 530.998C51.6253 527.625 52.704 534.508 55.235 537.025C54.2669 537.455 53.2989 537.886 52.3312 538.318C52.1789 534.445 51.7972 530.73 50.3037 527.142C50.64 526.832 50.9765 526.522 51.313 526.212C52.0319 526.948 52.7521 527.686 53.4722 528.42C53.8574 525.153 51.2238 527.528 53.0956 522.953C51.9302 523.024 50.7647 523.094 49.5992 523.164C49.2878 519.123 48.9987 515.107 48.7217 511.063C46.0809 509.387 45.7067 501.582 48.9078 502.512C48.6284 499.396 47.6482 503.452 46.4672 500.679C46.3411 500.382 46.2173 500.011 46.1132 499.61C45.7905 498.357 45.6556 496.822 46.1897 496.272C48.0689 496.16 49.111 497.671 50.2059 498.967C50.7842 499.641 51.3762 500.255 52.1112 500.533C52.2074 500.39 52.1249 499.705 51.9511 498.693C51.1514 494.19 48.7309 483.144 51.6243 484.016C51.8375 482.592 50.2077 483.451 49.4409 481.049C47.2788 474.266 49.4559 463.181 44.6565 458C42.9446 464.832 45.684 466.527 46.3714 471.545C46.7441 474.77 49.8621 494.255 46.2633 490.325C46.7481 490.985 47.2342 491.647 47.7215 492.309C46.9358 493.168 46.1519 494.031 45.3699 494.899C44.9288 492.844 44.5044 490.843 44.0801 488.783C44.9016 488.163 45.724 487.547 46.5473 486.934C45.8791 486.798 45.2109 486.661 44.5428 486.524C44.2971 485.686 44.0499 484.824 43.8059 483.975C44.6047 484.115 45.4036 484.255 46.2026 484.394C46.1506 483.037 46.1053 481.702 46.0614 480.348C45.0848 480.844 44.1084 481.338 43.132 481.831C42.0521 475.555 42.9756 477.614 44.4593 473.883C44.3429 471.256 42.8961 475.909 41.7414 470.432C40.4336 464.068 44.0192 467.943 42.4825 459.697C41.9578 459.63 41.4334 459.564 40.9086 459.493C41.2356 457.59 41.575 455.738 41.9176 453.842C41.302 454.143 40.6866 454.445 40.0715 454.749C39.9608 450.945 38.3148 445.8 40.7262 444.35C39.824 448.295 44.2014 447.883 44.9223 446.832C46.2381 444.651 42.9542 414.513 42.8859 408.602C42.5613 401.076 43.9138 395.395 41.7585 388.535C39.9309 393.188 41.641 409.584 40.5621 412.732C40.452 413.043 36.4265 413.085 41.0168 414.917C40.4674 421.339 42.1064 428.907 42.5081 436.858C41.3364 436.692 40.1648 436.526 38.9932 436.358C41.1257 431.296 35.4959 427.053 40.0208 427.452C39.9691 426.469 39.9198 425.491 39.8728 424.518C39.0987 424.556 38.3246 424.593 37.5504 424.63C37.4793 423.158 37.4122 421.666 37.351 420.2C38.1253 420.168 38.8997 420.135 39.674 420.103C39.6227 418.875 39.5751 417.655 39.5309 416.442C38.754 416.343 37.9771 416.243 37.2002 416.142C38.642 412.433 34.1004 400.029 38.8271 405.433C38.7913 403.706 38.762 402.001 38.7384 400.278C38.1719 400.291 37.6053 400.305 37.0387 400.318C36.9524 399.579 36.8673 398.849 36.7831 398.103C37.2986 398.342 37.8143 398.582 38.3301 398.819C37.3708 395.429 40.0591 392.23 38.2837 390.004C37.8969 391.472 37.514 392.934 37.1352 394.406C37.8496 391.602 36.3353 386.405 36.3364 385.945C36.3352 384.536 37.4856 383.787 37.5565 382.267C37.6185 380.885 36.7371 381.065 36.7705 380.808C37.1928 377.593 38.3314 376.302 39.0214 375.608C39.9253 374.684 40.0678 374.746 36.9071 372.724C37.6844 372.373 38.4619 372.012 39.2396 371.658C38.6067 371.152 37.9741 370.647 37.3419 370.141C37.4493 367.945 37.565 365.743 37.6894 363.547C36.7053 364.25 35.7221 364.959 34.7398 365.673C34.3986 362.35 36.3838 360.862 36.4376 360.548C36.5795 359.651 35.3829 359.187 35.3904 358.907C36.0257 345.42 36.7638 353.639 41.6275 347.156C39.9687 344.675 38.0522 346.993 36.2196 347.247C37.2381 344.098 36.7913 343.069 37.1012 339.699C37.1838 338.823 38.2246 337.94 38.2748 337.389C38.3179 336.914 37.3808 335.338 37.4601 334.186C37.5907 332.263 38.4054 329.755 38.612 327.128C38.7731 324.945 38.6523 318.186 39.1624 313.521C39.3804 311.531 40.1975 312.09 40.2563 311.577C40.2801 311.364 39.4178 309.698 39.565 308.42C40.5445 299.951 42.1936 291.407 43.7221 282.955C44.0707 281.025 44.4137 279.096 44.7427 277.166C45.9852 269.88 46.577 262.33 48.1976 255.08C48.5438 253.541 49.1204 254.517 49.2907 253.848C49.3479 253.618 48.0961 253.056 49.1421 250.787C49.5211 249.964 50.2166 251.158 50.4487 250.319C50.5635 249.906 49.4496 249.494 49.7315 247.019C50.2439 242.536 52.3313 240.555 52.3777 240.15C52.4634 239.401 51.4681 239.39 51.6667 238.411C52.6429 233.62 53.4805 229.625 54.4993 225.386C54.9412 223.398 58.4566 209.813 58.8559 209.148C59.6999 207.595 61.214 209.677 61.7471 207.558C61.4227 206.827 61.1 206.093 60.7789 205.355C60.1315 206.193 59.4873 207.026 58.846 207.855C60.2072 205.451 60.1766 202.255 60.7788 200.333C60.8881 199.985 62.7357 196.979 63.1359 195.303C63.2907 196.112 63.4447 196.926 63.5982 197.745C63.984 197.587 64.3701 197.429 64.7562 197.271C65.2677 193.837 66.3517 190.319 67.4627 186.97C67.8638 185.757 68.4888 186.405 68.9014 185.172C71.3086 178.058 67.6195 178.84 75.6903 173.864C74.4042 175.994 72.4534 184.735 71.8882 185.887C71.4778 186.715 65.4768 188.507 70.9569 188.863C68.8171 195.754 67.8344 188.883 66.4895 195.538C67.1525 195.597 67.8154 195.656 68.4784 195.715C68.1976 198.071 68.0134 199.849 66.5087 200.882C69.3999 202.237 65.389 209.365 64.4229 213.651C63.0015 219.847 61.9118 226.925 60.5133 233.052C60.0337 235.148 58.5375 236.05 58.4764 236.313C58.3893 236.704 59.1824 238.029 59.0022 238.807C58.3234 241.664 54.5167 250.048 57.0015 252.876C60.7406 235.743 65.2447 218.781 70.2032 201.991C68.1276 203.685 73.1209 186.661 73.4986 185.825C73.8084 185.056 74.5933 186.031 74.7268 185.815C75.6974 184.207 74.7407 182.233 74.9158 181.68C75.0498 181.258 75.9928 180.623 76.4619 179.103C76.5487 178.824 75.8608 178.519 75.9546 178.218C76.4907 176.544 77.0239 174.915 77.5718 173.227C77.6678 172.931 77.764 172.634 77.8604 172.336C77.9062 172.219 79.1065 172.062 79.2707 171.565C79.4333 171.067 78.5575 170.233 78.5957 170.105C79.1272 168.504 80.6782 166.07 81.191 164.552C81.3634 164.033 80.4841 164.141 80.6838 163.565C81.2955 161.79 82.5839 162.877 82.9436 160.532C83.0654 159.741 81.9111 159.414 82.5362 158.052C82.9801 157.086 84.9673 157.876 85.0943 157.742C85.2568 157.551 84.8311 153.551 86.5392 152.873C89.1898 156.534 87.645 150.225 86.0879 149.973C86.9242 148.739 87.7647 147.498 88.6092 146.25C88.3994 145.649 88.1845 145.063 87.9727 144.469C91.5637 139.518 91.7199 135.838 94.1474 130.589C94.2615 130.344 96.701 126.073 97.1504 126.468C97.0768 129.531 96.1684 132.241 93.8866 133.416C96.0546 137.395 93.4999 136.574 92.3098 141.351C91.9108 142.961 92.7343 143.372 92.6832 143.555C91.0081 149.753 88.0873 159.571 84.196 162.824C84.4953 164.203 86.1509 160.157 86.1159 161.936C86.1001 162.512 83.9593 170.082 82.0993 174.696C80.7786 177.97 79.5921 179.718 79.2752 176.56C79.1301 177.288 78.9894 178.004 78.8452 178.733C81.3769 180.334 79.643 183.599 77.0146 182.331C77.4755 182.834 77.932 183.352 78.3912 183.862C78.6607 184.669 78.672 185.525 78.4859 186.651C77.6765 190.953 69.4098 215.466 69.5274 216.938C70.1796 217.151 70.8317 217.364 71.484 217.577C75.2746 206.819 76.8137 195.717 82.4364 184.442C81.7135 184.595 80.9909 184.748 80.2685 184.902C81.8896 181.823 83.5171 178.775 85.1694 175.693C85.9085 174.324 86.6545 172.943 87.4072 171.55C87.2644 172.957 87.0492 174.55 86.7694 176.212C85.9561 180.98 84.5906 186.435 82.7098 190.1C82.255 190.986 81.6126 190.033 81.4419 190.216C80.9975 190.697 82.2961 191.755 81.822 193.81C81.3401 195.877 78.755 200.626 78.6523 201.089C78.4391 202.022 79.4341 204.923 78.9628 206.453C78.3449 208.454 77.6817 206.799 77.5415 207.195C76.9544 208.82 77.0425 210.484 76.5923 211.761C75.9205 213.658 72.9179 217.188 75.2872 219.304C75.7941 217.957 76.3105 216.59 76.8231 215.251C75.701 223.008 70.6028 227.985 71.4411 236.135C74.3575 238.658 75.448 232.421 75.5718 237.953C75.7569 237.009 75.9482 236.048 76.1383 235.102C75.4948 234.706 74.8517 234.309 74.209 233.911C75.1218 232.419 76.0392 230.934 76.9626 229.449C76.2193 229.748 75.4765 230.046 74.7343 230.344C75.758 224.487 76.7332 218.517 80.6228 217.452C79.8511 217.11 79.0795 216.767 78.3082 216.424C80.7634 211.402 79.7276 202.438 83.7452 205.249C83.5829 204.929 83.4209 204.609 83.2592 204.288C85.1285 201.342 82.8737 202.18 83.0264 200.913C83.0669 200.549 85.9069 194.632 86.3895 197.782C89.254 192.034 84.5303 192.638 84.8674 190.901C88.1195 187.673 87.2745 179.725 89.5778 183.691C89.8833 183.154 90.1916 182.609 90.4978 182.072C89.0669 180.095 90.5719 179.057 92.1203 177.949C92.6756 177.56 93.2366 177.16 93.6681 176.703C93.9509 176.031 94.2352 175.356 94.5212 174.678C93.8189 173.93 93.1166 173.182 92.4126 172.441C98.6374 167.26 86.833 165.638 97.1701 165.769C97.5727 166.422 97.9761 167.073 98.3803 167.722C98.2788 168.91 98.1849 170.08 98.0826 171.279C99.7926 166.944 101.537 162.576 103.284 158.254C107.81 153.54 106.084 149.359 110.316 143.855C110.272 143.186 110.233 142.505 110.187 141.842C112.084 143.173 110.986 145.318 113.4 141.451C115.013 141.615 114.213 144.514 112.617 145.419C112.229 145.635 112.018 142.574 110.934 145.552C110.198 147.575 113.271 144.499 110.493 150.363C110.936 150.263 111.378 150.163 111.82 150.064C111.58 150.721 111.342 151.377 111.104 152.03C110.059 152.326 109.018 152.61 107.97 152.914C108.664 154.855 110.084 156.269 108.542 159.597C108.334 158.478 106.202 159.178 105.653 160.888C106.264 161.096 106.875 161.303 107.486 161.511C106.482 165.763 105.165 163.752 105.417 167.637C104.815 167.82 104.213 168.003 103.611 168.185C104.983 170.729 104.081 178.046 101.487 175.799C102.843 177.514 102.465 179.492 101.357 180.947C100.584 181.975 99.4635 182.76 98.3098 183.066C98.8824 183.378 99.455 183.689 100.028 184.001C99.8955 184.836 99.7614 185.68 99.6271 186.528C99.1144 186.859 98.6022 187.19 98.0907 187.519C98.2792 188.205 98.4697 188.886 98.6602 189.569C97.9375 189.721 97.2152 189.874 96.4931 190.026C96.9377 191.178 97.386 192.322 97.8381 193.458C97.1757 193.858 96.5074 194.278 95.8435 194.686C97.1017 195.145 95.6781 200.775 94.3736 202.062C94.6056 202.64 94.8386 203.217 95.0727 203.791C94.3935 203.832 93.7143 203.873 93.0353 203.915C93.4212 204.405 93.8078 204.894 94.195 205.381C93.4701 206.022 92.7405 206.682 92.0165 207.327C94.0681 211.424 91.4008 210.779 91.2046 211.517C90.8402 212.882 91.3866 218.091 91.0726 218.844C90.7554 219.593 89.5691 219.663 89.2926 220.258C84.7176 230.172 88.8268 226.679 88.7155 228.891C88.6647 230.083 87.4452 230.592 87.2945 231.618C87.0161 233.37 86.194 242.244 85.9545 242.707C85.5882 243.377 81.2041 240.506 81.8687 243.145C84.4245 243.844 80.6237 248.211 84.78 246.744C83.9747 248.713 83.1784 250.689 82.3917 252.675C85.5119 253.142 82.959 255.218 82.5262 258.012C81.8847 261.979 82.1526 271.155 79.0594 270.224C79.6038 271.303 80.1503 272.384 80.7003 273.459C78.953 278.358 78.5562 283.456 77.9992 288.525C77.8479 289.896 77.6871 291.252 77.4835 292.615C74.6028 311.657 71.8795 332.162 70.367 351.417C70.2919 352.342 69.2452 352.164 69.1916 352.829C68.9024 356.331 69.3324 365.513 69.006 370.471C68.8981 372.051 67.8559 372.819 67.7993 373.318C67.6015 375.024 68.9637 374.646 68.9116 375.435C68.902 375.581 68.8751 375.798 68.8349 376.073C68.5254 378.148 67.4731 383.51 67.3508 385.517C67.2798 386.631 68.3519 387.969 68.019 389.274C67.992 389.386 66.8826 389.178 66.8632 389.273C66.7281 391.661 67.6867 390.224 67.6371 391.033C67.2864 396.798 67.3418 402.938 67.282 409.171C67.2646 410.714 66.5572 413.107 66.5307 414.439C66.5228 414.947 67.3308 414.01 67.3246 415.762C67.3229 416.359 66.2368 416.605 66.1923 417.285C66.0111 420.229 69.569 421.031 66.8635 423.665C67.273 428.488 68.7077 436.838 69.075 441.221C69.1575 442.254 68.5528 442.81 68.644 443.803C68.7087 444.513 69.8076 445.66 69.9131 446.753C70.0183 447.852 69.2177 449.658 69.4487 451.769C69.6881 453.984 70.5286 456.697 70.5758 457.189C70.6367 457.79 69.4671 458.193 69.5448 458.796C69.7701 460.638 71.4814 465.38 71.889 467.713C72.3211 470.228 71.9291 471.799 72.049 472.67C72.1653 473.473 73.2904 474.264 73.3461 474.628C73.434 475.192 72.2728 475.477 72.3764 476.199C72.5505 477.386 73.4483 478.483 73.7082 480.249C74.4325 485.151 75.1833 490.039 75.9614 494.921C80.2745 521.945 84.5714 548.51 89.7763 574.556C90.4667 577.99 91.7208 579.725 92.5592 584.815C92.9012 586.877 91.5023 586.315 92.1147 587.837C92.3901 588.516 93.2819 588.107 93.5474 588.983C94.7125 592.852 95.0263 597.623 95.4906 599.312C95.6722 599.982 96.9322 600.464 97.3143 601.827C100.165 611.997 103.383 624.016 107.158 634.526C108.296 637.707 109.944 641.772 111.635 645.766C112.971 648.947 114.257 651.99 115.377 654.812C122.485 672.748 130.289 691.989 137.633 707.948C148.689 732.356 161.528 754.367 172.952 780.912C169.49 767.195 161.436 752.316 155.622 739.738C141.336 709.253 126.393 677.431 113.931 644.905C111.708 639.127 109.646 633.234 107.739 627.29C103.5 614.171 98.7684 597.139 95.7886 581.982C95.6516 581.295 94.496 580.082 94.236 578.585C94.18 578.265 94.7728 574.034 94.4919 572.72C92.1119 574.571 93.3164 568.888 92.9045 567.312C92.3761 565.325 90.1222 561.416 89.8888 556.53C89.6783 552.097 90.9574 553.071 90.9717 552.82C91.0775 551.221 89.3109 551.027 88.907 549.897C87.2058 545.3 83.5667 520.493 82.517 513.568C82.2278 511.781 83.2804 511.547 83.2161 511.145C83.0423 510.076 81.7422 508.753 81.4637 507.032C80.9676 503.954 81.3944 500.234 81.1288 498.546C80.9418 497.356 80.6057 495.876 80.206 494.254C79.238 490.349 77.9206 485.577 77.3938 481.893C77.1855 480.442 78.3063 480.367 78.2123 479.708C77.7887 476.821 75.5163 469.391 75.0992 465.765C74.4028 459.882 74.5097 453.775 73.6202 447.819C74.0846 447.395 74.5494 446.972 75.0147 446.551C74.4414 445.998 73.8689 445.446 73.2973 444.894C72.8573 434.748 71.1315 424.506 70.8521 414.379C70.8122 413.21 71.6017 407.422 71.5897 406.455C71.5713 405.657 70.3169 404.899 70.4761 403.701C70.6987 402.03 73.0805 403.559 72.3628 400.853C72.1699 400.125 71.1709 400.848 70.8367 399.384C70.7107 398.907 70.2462 389.459 70.3308 388.952C70.4491 388.105 72.6123 387.35 72.6596 387.133C72.9074 385.999 71.2491 386.044 71.1017 385.279C70.6599 383.018 71.8078 380.081 71.7883 379.717C71.7295 378.697 71.621 377.454 71.5012 376.115C71.0989 371.626 70.5945 365.885 71.314 362.344C71.4437 361.708 72.6756 361.826 72.7194 361.715C72.9987 361.005 71.6091 360.5 71.6009 359.811C71.5683 356.092 72.7717 350.355 73.221 346.673C73.2706 346.248 72.6459 345.311 72.7559 344.557C73.394 340.284 74.3975 341.752 74.4574 341.51C74.6095 340.939 73.4798 339.85 73.5125 338.308C73.5777 334.337 74.3765 326.796 74.8978 322.598C75.2864 319.45 76.6522 319.643 76.6993 319.439C76.795 319.004 75.8341 317.663 75.9438 315.576C76.1564 311.56 77.1812 312.143 77.3321 310.502C77.3495 310.364 76.2715 310.476 76.3915 308.644C76.612 305.101 78.7429 297.358 79.2826 293.6C79.4868 292.154 78.5368 291.653 78.7535 290.17C78.8139 289.754 78.9248 289.249 79.0674 288.698C79.7257 286.148 81.0869 282.635 81.1451 282.297C81.1655 282.181 80.0588 281.719 80.18 281.031C80.3141 280.272 81.0377 279.644 81.1352 279.08C81.6856 275.887 80.751 269.997 84.5526 272.32C83.737 271.113 82.9283 269.885 82.1211 268.665C83.657 262.026 84.669 255.475 86.0256 248.825C86.3325 247.326 87.397 246.28 87.6657 245.014C87.9208 243.772 88.0428 237.903 88.2583 236.988C88.6232 235.319 90.9818 225.936 91.4131 224.779C92.206 222.566 94.4906 220.814 94.4253 219.805C94.3743 218.988 93.243 219.414 93.3831 217.913C93.6162 215.342 96.0304 211.523 96.2364 210.761C96.3252 210.434 95.4154 210.829 96.2511 207.82C96.7063 206.182 97.7608 205.575 97.9338 204.986C97.9847 204.805 96.6041 204.681 97.7483 201.542C98.5399 199.384 99.8377 198.724 99.9086 198.506C100.022 198.164 99.2126 197.005 99.6854 195.616C100.785 192.394 103.906 186.789 104.993 183.755C105.155 183.303 104.415 183.075 104.446 181.95C104.453 181.601 104.537 181.164 104.752 180.603C105.392 178.927 106.314 179.555 106.564 178.929C106.964 177.919 106.203 176.033 106.991 173.792C107.939 170.982 116.365 150.52 117.108 149.545C117.583 148.898 117.891 148.06 118.566 147.89C118.985 148.383 119.404 148.875 119.823 149.367C116.867 151.908 119.424 151.368 119.265 152.262C119.03 153.564 117.163 158.103 117.251 159.383C117.284 159.839 118.721 159.316 118.571 161.648C118.4 164.172 116.05 164.504 118.484 166.344C114.326 168.594 116.521 172.784 118.648 169.32C119.803 167.386 128.022 147.081 129.708 142.922C131.045 139.553 132.515 132.841 134.235 128.698C135.242 126.272 137.585 120.212 138.939 120.996C139.916 118.861 137.634 120.67 137.6 120.136C137.529 119.014 141.014 112.504 141.447 111.195C143.589 104.713 144.94 96.0238 149.063 90.457C149.343 90.8882 149.623 91.3217 149.902 91.7553C150.093 93.4237 146.693 99.5433 148.283 100.958C151.762 91.4632 155.277 81.955 158.808 72.4499C157.163 72.0395 161.576 60.2478 162.498 59.9562C163.184 60.4484 163.871 60.9405 164.558 61.4326C159.174 67.0178 163.232 67.8441 159.53 71.5669C158.824 73.3788 160.292 73.2975 160.199 74.2833C159.269 84.1003 157.55 73.4707 156.149 80.7191C158.744 79.3391 157.336 85.1949 156.647 87.7798C156.484 88.3759 153.258 95.6946 152.962 96.5946C151.286 101.655 149.155 110.6 146.353 115.186C144.812 119.055 145.343 121.681 144.372 125.324C143.632 128.1 142.99 126.999 142.523 128.26C141.547 130.898 144.036 132.784 139.517 133.085C139.364 135.052 139.207 137.033 139.057 139.003C138.449 138.787 137.841 138.572 137.233 138.356C136.832 139.484 136.434 140.608 136.031 141.745C136.519 142.293 137.008 142.84 137.497 143.386C135.404 146.67 134.468 144.655 132.508 144.721C132.115 145.459 131.724 146.194 131.333 146.928C132.446 147.992 133.559 149.054 134.674 150.113C133.355 153.535 132.044 156.956 130.753 160.351C130.068 160.366 129.383 160.382 128.697 160.397C129.303 160.613 129.908 160.83 130.513 161.046C128.629 166.926 126.776 172.797 124.968 178.655C125.426 180.53 129.28 171.476 129.591 170.772C131.232 166.963 133.863 156.174 136.044 156.896C135.267 153.91 138.269 146.63 141.012 145.036C139.668 148.469 138.328 151.918 136.998 155.362C137.763 155.502 138.527 155.643 139.292 155.783C134.859 159.094 134.803 159.778 136.037 165.193C135.061 164.863 134.085 164.533 133.109 164.203C135.435 168.454 127.824 171.981 131.963 173.557C131.068 175.086 130.176 176.619 129.286 178.154C128.65 181.742 133.336 177.731 128.339 189.706C128.184 190.081 128.02 190.47 127.847 190.875C127.45 191.802 126.44 191.259 126.055 192.71C125.949 193.119 126.739 195.997 125.156 200.465C124.909 201.16 123.96 200.921 123.614 201.61C122.797 203.232 123.616 207.139 121.073 204.693C118.136 211.128 121.47 209.092 121.821 211.47C122.059 213.046 120.357 212.232 120.407 213.538C120.469 215.176 122.579 214.621 120.023 220.275C120.093 219.581 120.164 218.883 120.237 218.181C119.648 218.372 119.06 218.563 118.472 218.753C118.673 222.444 117.041 221.658 119.347 224.024C117.421 226.107 116.719 228.21 116.03 231.59C114.709 238.186 118.583 235.643 112.624 241.961C112.879 243.312 113.148 244.624 113.411 245.97C111.727 247.63 110.632 245.66 109.603 248.522C113.114 246.959 110.522 252.87 112.922 254.515C112.269 254.474 111.615 254.436 110.962 254.396C110.807 255.05 110.654 255.701 110.503 256.348C111.006 256.468 111.509 256.587 112.013 256.707C111.436 257.472 110.856 258.263 110.282 259.037C110.634 259.799 110.987 260.559 111.341 261.323C110.046 262.155 108.755 262.98 107.462 263.826C107.243 264.485 107.027 265.132 106.809 265.794C107.608 265.742 108.408 265.69 109.206 265.643C108.769 266.449 108.332 267.263 107.899 268.067C109.348 267.331 110.661 268.259 110.07 270.927C109.592 273.116 107.499 270.116 107.627 275.085C107.642 275.434 109.357 276.381 108.802 280.918C108.155 286.365 107.298 283.509 107.076 284.461C107.034 284.646 107.671 286.469 107.54 288.033C107.465 288.926 106.568 289.645 106.55 289.762C106.493 290.31 107.534 290.646 107.447 291.407C107.379 291.983 107.248 292.609 107.092 293.252C106.722 294.775 106.215 296.391 106.049 297.713C105.941 298.566 106.453 299.469 106.404 299.848C106.322 300.438 105.243 301.039 105.159 301.638C104.853 303.848 107.613 307.61 103.008 308.026C106.832 310.68 101.312 314.455 104.115 314.476C102.318 319.993 104.363 335.334 99.778 334.532C103.509 338.066 100.651 337.553 100.611 338.912C100.57 340.43 101.398 339.699 101.281 340.902C101.008 343.703 100.513 346.378 100.346 349.201C99.7297 348.726 99.1143 348.246 98.4995 347.766C98.1332 350.724 99.6743 349.786 99.8132 352.827C100.082 358.441 99.0051 356.043 97.29 356.798C98.9123 356.633 98.4158 363.275 98.1897 363.952C98.0486 364.354 96.0089 362.51 96.5655 366.633C97.2142 366.426 97.8631 366.219 98.512 366.013C97.5756 367.862 98.5787 372.977 98.3497 373.85C98.275 374.122 95.7583 375.177 95.5547 376.491C95.4636 377.072 95.8353 377.702 97.0948 378.325C96.4487 378.553 95.8028 378.781 95.1569 379.011C95.9016 381.197 96.6542 383.369 97.4156 385.538C96.2558 385.876 95.0962 386.214 93.9368 386.554C93.934 387.24 93.9322 387.928 93.9313 388.618C94.96 388.161 95.9892 387.708 97.0187 387.257C96.5358 391.488 98.2007 396.592 94.7452 397.498C95.3979 398.4 96.052 399.278 96.708 400.169C95.5632 400.771 94.4192 401.379 93.2758 401.981C93.6444 406.15 94.4225 406.197 95.7263 408.996C94.8231 408.911 93.9199 408.825 93.0168 408.739C94.3365 410.809 95.6371 414.573 95.9232 417.579C96.0539 418.994 94.9296 421.525 95.0587 421.848C95.1913 422.185 100.232 425.279 96.0395 425.863C98.1802 430.685 96.4289 432.951 96.6127 434.961C96.7349 436.256 97.7873 436.768 98.0016 438.229C98.3088 440.304 97.9938 442.468 98.1643 443.659C98.265 444.346 99.2606 444.391 99.3325 444.865C99.6802 447.114 98.5559 445.871 98.8364 448.24C98.8679 448.46 100.227 450.086 100.264 452.048C100.284 453.157 99.2237 456.109 99.2552 456.365C99.3971 457.476 101.99 456.295 99.2934 460.418C99.7932 460.251 100.293 460.084 100.793 459.918C102.613 464.443 100.435 465.461 100.387 466.419C100.389 466.541 101.408 467.572 101.372 468.271C101.307 469.455 100.16 470.069 100.139 470.331C100.066 471.249 100.99 474.222 100.096 476.36C103.462 475.491 105.645 482.231 102.006 484.333C102.953 485.454 103.903 486.572 104.854 487.676C104.301 488.328 103.749 488.983 103.199 489.642C103.857 489.872 104.516 490.102 105.174 490.332C105.204 490.343 105.234 490.354 105.264 490.365C104.155 492.424 103.055 494.524 101.955 496.597C103.374 496.489 104.793 496.382 106.211 496.273C106.136 496.817 106.06 497.361 105.985 497.906C104.939 498.492 103.893 499.079 102.848 499.668C103.167 500.288 103.484 500.894 103.803 501.508C104.634 501.535 105.465 501.563 106.296 501.59C107.802 504.916 99.826 504.42 107.694 509.903C107.237 511.038 106.781 512.177 106.327 513.319C109.611 513.947 108.124 516.435 108.784 518.134C109.248 519.324 110.459 519.036 110.788 520.709C111.118 522.384 109.939 522.538 109.955 522.67C110.132 524.052 111.352 524.89 111.332 525.931C111.329 526.088 110.011 526.723 110.161 528.02C110.312 529.312 111.931 529.803 112.013 531.755C112.058 532.757 110.943 533.258 111.005 534.141C111.294 538.365 118.015 541.289 111.636 545.768C112.662 546.288 116.793 550.645 117.067 552.805C117.485 556.175 115.845 555.193 115.876 556.564C115.88 556.761 116.556 557.671 117.081 560.459C117.175 560.957 117.922 560.672 117.948 560.741C118.639 563.972 119.449 570.341 120.176 573.873C120.24 574.191 122.768 575.311 120.559 578.778C123.675 582.349 121.065 591.206 125.703 595.657C125.97 596.373 125.452 597.471 125.567 597.788C126.579 600.517 128.575 598.848 127.005 606.073C128.033 605.23 129.508 606.373 130.028 608.451C130.811 611.563 127.975 610.037 128.899 612.45C129.514 612.263 130.129 612.075 130.745 611.888C130.826 618.038 133.805 618.342 135.646 623.825C136.314 625.809 135.969 629.144 136.134 629.617C136.202 629.802 138.414 631.388 138.497 631.58C138.952 632.699 138.514 633.579 138.867 634.545C138.976 634.84 139.102 635.134 139.24 635.424C140.733 638.648 143.274 641.506 139.911 642.011C140.996 642.685 142.095 643.393 143.189 644.085C140.954 649.158 147.032 649.886 143.805 652.055C144.792 652.421 145.778 652.784 146.763 653.142C152.556 668.846 158.723 684.355 165.311 699.746C166.686 699.834 169.36 706.661 169.339 707.05C169.289 708.977 166.106 708.465 168.155 711.399C169.377 711.254 170.597 711.106 171.817 710.956C174.049 714.787 172.096 713.372 172.129 715.286C172.572 715.88 173.289 715.28 173.769 716.132C176.388 720.804 181.291 730.714 184.038 736.03C184.585 737.092 183.746 737.307 183.909 737.638C184.393 738.588 186.244 739.902 187.191 741.788C191.927 751.541 197.784 762.56 204.148 780.078C204.879 782.413 205.58 784.617 206.221 786.628C206.441 787.325 205.547 787.803 205.692 788.28C205.895 788.939 207.242 790.018 207.444 790.691C207.64 791.337 207.101 792.017 207.31 792.705C208.237 795.832 211.173 798.937 210.476 802.369C210.425 802.704 208.198 806.994 207.991 807.141C206.804 808.215 203.557 807.736 203.413 811.849C201.819 811.261 200.19 811.221 199.265 812.338C198.272 813.335 198.138 815.676 198.188 817.17C197.114 816.536 195.14 814.261 193.347 811.887C192.973 812.086 192.599 812.285 192.225 812.484C191.638 815.796 192.723 818.996 193.905 820.802C193.565 821.004 193.219 821.198 192.866 821.383C189.972 820.919 187.062 816.696 183.297 815.208C183.666 820.17 184.389 825.275 184.959 828.97C184.629 829.06 184.29 829.139 183.939 829.199C182.248 828.517 179.196 824.643 177.606 823.303C171.436 818.238 179.044 829.989 176.471 828.896C172.268 822.205 168.761 814.609 165.55 806.967C163.776 807.462 174.939 837.219 173.483 839.141C171.346 837.08 169.562 834.892 167.86 832.657C167.678 834.227 167.556 835.845 167.5 837.488C167.039 837.37 166.577 837.245 166.11 837.109C162.681 833.348 159.718 829.482 156.89 825.561C164.748 838.515 165.964 842.911 170.051 855.108C168.877 854.637 167.847 854.142 166.958 853.698C162.877 844.651 155.218 833.159 150.639 826.027C150.035 828.122 154.375 834.09 154.479 835.898C154.491 836.415 152.851 835.52 152.934 836.688C153.05 838.222 154.235 841.773 155.634 845.186C156.941 848.54 158.856 852.016 157.412 851.552C154.143 850.201 142.836 833.484 141.777 830.331C144.378 839.162 145.906 845.856 155.296 859.593C145.464 853.7 139.46 850.759 133.979 841.07C132.524 840.021 133.714 844.666 136.112 850.387C138.194 855.86 143.513 864.006 143.954 865C138.144 859.716 134.878 856.154 131.564 852.587C133.859 855.884 136.27 859.264 140.111 863.711C139.869 863.925 139.628 864.14 139.387 864.355C129.428 853.777 123.974 848.321 119.589 839.064C118.171 840.084 120.95 845.416 122.458 848.236ZM151.106 113.557C152.489 113.896 151.295 116.498 150.716 118.016C151.041 117.876 151.366 117.735 151.691 117.595C150.262 120.742 147.576 126.586 150.084 127.73C149.572 130.16 147.693 128.328 147.169 128.982C146.961 129.241 147.193 132.706 144.737 134.554C144.538 135.129 144.341 135.702 144.144 136.274C144.953 136.687 145.761 137.1 146.57 137.513C145.259 137.934 143.941 138.377 142.628 138.807C145.414 130.399 148.242 121.993 151.102 113.57C151.103 113.566 151.105 113.562 151.106 113.557ZM123.585 196.713C122.144 199.565 119.958 203.906 122.601 203.712C123.067 201.77 123.526 199.87 124.005 197.922C123.867 197.514 123.725 197.115 123.585 196.713ZM99.6209 496.599C97.6447 499.598 100.108 501.673 100.352 505.788C100.857 505.698 101.362 505.608 101.867 505.518C100.374 504.068 100.461 499.565 99.6209 496.599ZM170.486 34.5823C170.876 34.0844 171.264 33.5902 171.654 33.0941C173.379 36.3483 171.403 36.0823 170.685 38.7634C170.642 38.9253 171.254 39.0924 171.237 39.1482C171.04 39.7965 170.109 40.1142 169.906 40.6911C169.514 41.8046 169.898 42.9757 169.141 44.9196C168.554 46.4216 167.416 46.0103 167.246 46.5538C167.102 47.0223 168.548 52.6621 166.121 55.0513C161.503 59.5832 169.613 36.1728 170.486 34.5823ZM178.725 19.0931C178.532 19.641 178.338 20.1888 178.145 20.7364C177.016 18.4493 176.045 21.8442 175.172 24.2812C173.531 23.5779 176.164 18.7287 176.527 16.246C177.26 17.1953 177.993 18.1443 178.725 19.0931ZM149.535 86.4009C150.149 84.2105 152.106 85.3404 152.696 85.657C152.447 86.3312 152.196 87.0102 151.947 87.6855C151.143 87.2574 150.339 86.8291 149.535 86.4009ZM154.721 70.1745C155.894 71.3612 154.803 76.1993 154.111 78.4238C154.076 78.5189 153.52 77.6325 153.021 79.1998C152.872 79.6714 154.016 85.2842 151.173 83.0905C152.352 78.7845 153.535 74.4786 154.719 70.1807C154.72 70.1786 154.72 70.1765 154.721 70.1745ZM157.29 65.8317C157.412 66.8658 157.535 67.8958 157.657 68.9304C156.824 69.1327 155.992 69.3348 155.159 69.5367C155.359 68.4846 155.559 67.4322 155.758 66.3843C156.268 66.2002 156.779 66.016 157.29 65.8317ZM153.255 715.949C153.853 715.435 154.451 714.922 155.05 714.408C155.129 713.483 150.48 711.315 150.422 712.711C151.371 713.808 152.291 714.834 153.255 715.949ZM159.021 731.727C159.038 732.64 159.054 733.546 159.067 734.446C160.639 734.729 162.227 735.042 163.8 735.322C162.747 731.214 161.748 726.843 158.64 729.14C158.235 728.304 157.828 727.46 157.418 726.606C159.177 726.64 159.601 726.332 159.422 723.653C157.226 724.127 157.135 721.358 155.455 718.923C156.24 720.887 157.044 722.873 157.834 724.819C157.487 724.985 157.14 725.152 156.792 725.318C154.887 721.007 155.216 727.379 157.932 729.468C157.575 729.907 157.217 730.345 156.864 730.794C157.585 731.109 158.303 731.42 159.021 731.727ZM78.2753 406.348C77.9013 406.931 77.528 407.518 77.1556 408.107C82.2608 410.201 77.3475 405.787 81.2878 402.477C78.2704 403.602 78.3186 398.661 78.1159 398.387C77.1012 398.964 76.0873 399.545 75.0741 400.13C76.132 402.222 77.199 404.294 78.2753 406.348ZM75.3787 422.791C77.7883 420.681 78.4387 430.442 78.1237 433.755C78.0392 434.556 76.7579 436.077 76.9731 436.645C77.5069 436.957 78.041 437.268 78.5754 437.579C76.8375 438.116 79.3066 444.386 80.4794 446.804C79.8596 447.097 79.2399 447.391 78.6205 447.686C78.9554 448.581 79.2918 449.47 79.6309 450.367C78.9823 450.311 78.3337 450.253 77.6852 450.196C78.5162 450.821 79.3492 451.456 80.1816 452.071C81.2954 454.704 77.6569 453.364 78.9443 455.314C80.3767 457.473 82.0721 453.53 83.4286 453.473C82.8993 451.678 81.7391 447.57 81.5441 445.693C81.4347 444.615 83.9442 445.656 80.7971 441.241C81.3662 440.184 81.9368 439.113 82.5108 438.054C81.346 436.283 80.1867 434.473 79.0373 432.684C79.9112 432.276 80.7855 431.871 81.6602 431.467C81.7845 431.261 79.4962 427.076 78.8381 427.338C80.4549 425.505 80.5712 421.893 80.5036 418.12C80.0006 417.774 79.4979 417.429 78.9956 417.083C80.1996 420.708 78.527 418.271 77.6389 419.404C77.1264 420.051 76.1576 422.05 75.3787 422.791ZM140.744 693.066C145.27 697.923 142.047 695.109 144.802 701.294C145.666 700.384 146.53 699.475 147.394 698.565C144.122 696.444 143.199 690.809 140.741 693.06C140.742 693.062 140.743 693.064 140.744 693.066ZM172.779 751.631C170.509 748.676 169.707 751.104 167.12 747.229C167.119 747.227 167.118 747.225 167.117 747.223C168.071 749.421 169.048 751.654 169.998 753.835C170.925 753.101 171.852 752.366 172.779 751.631ZM99.3697 558.202C99.1514 554.744 98.4067 555.586 99.5383 552.172C96.4614 548.073 97.5542 551.853 95.6102 552.256C96.3952 553.179 97.1816 554.101 97.9693 555.02C96.6811 557.92 95.2643 555.725 95.0896 555.76C95.09 555.762 95.0905 555.764 95.0909 555.766C94.5075 555.888 94.3674 555.833 94.2185 556.875C95.9354 557.321 97.6525 557.764 99.3697 558.202ZM94.0034 544.275C95.5281 545.181 97.2887 545.365 97.5175 542.162C97.5171 542.16 97.5167 542.157 97.5163 542.155C94.576 542.482 96.3382 539.1 95.8887 537.806C95.5069 537.517 95.1251 537.228 94.7436 536.939C94.4887 539.381 94.2424 541.83 94.0034 544.275ZM82.2645 493.257C83.5433 493.052 84.4251 493.326 85.1747 493.474C85.8212 493.603 86.369 493.638 86.9871 493.189C87.4549 492.852 87.963 492.241 88.5886 491.197C88.4239 490.514 88.2607 489.832 88.0987 489.153C87.324 488.81 86.5488 488.461 85.7735 488.108C90.3308 478.474 79.9785 477.271 85.9123 491.611C85.9148 491.613 85.9174 491.615 85.9199 491.616C84.7008 492.161 83.4823 492.707 82.2645 493.257ZM85.1069 509.062C86.8115 508.893 88.5161 508.723 90.2206 508.554C86.489 511.221 90.798 513.112 88.6095 517.491C89.1825 517.751 89.7557 518.011 90.3289 518.272C89.4368 519.93 91.7103 534.175 93.7352 530.622C94.6133 529.071 92.5463 526.441 92.5355 526.183C92.5068 525.306 93.7497 523.932 93.4085 522.512C93.2097 521.695 91.1967 520.239 90.9011 518.538C90.2352 514.726 93.6227 507.033 88.4776 502.731C88.9275 502.29 89.376 501.84 89.8256 501.396C88.91 497.716 87.5017 499.237 88.8687 495.448C80.4556 494.338 91.5265 509.317 84.4809 506.988C84.4812 506.99 84.4816 506.992 84.482 506.994C84.6905 507.688 84.8983 508.375 85.1069 509.062ZM109.359 609.028C108.016 609.65 111.361 613.091 107.73 613.116C109.288 614.105 110.85 615.092 112.41 616.054C112.718 615.951 113.026 615.847 113.334 615.743C112.697 614.514 112.06 613.268 111.43 612.025C111.923 611.875 112.416 611.725 112.909 611.576C110.533 610.162 108.999 601.665 110.843 601.443C109.979 601.206 109.115 600.967 108.251 600.725C109.202 596.214 106.147 593.359 107.028 588.488C106.324 588.307 105.62 588.125 104.916 587.942C105.361 587.597 105.805 587.251 106.25 586.906C105.916 585.3 105.586 583.69 105.262 582.081C101.982 577.353 101.831 588.13 102.454 589.282C102.536 589.434 103.822 589.082 104.283 590.047C105.078 591.768 106.441 602.155 108.168 604.986C107.324 605.25 106.479 605.514 105.634 605.779C106.874 606.875 108.113 607.949 109.359 609.028ZM82.9148 473.061C83.7785 472.716 84.6425 472.372 85.5068 472.029C84.1099 468.137 84.6062 465.532 81.7673 466.906C81.7675 466.908 81.7678 466.91 81.768 466.912C82.1404 468.961 82.5243 471.023 82.9148 473.061ZM114.757 177.529C113.021 177.078 111.773 178.717 112.191 181.569C112.723 181.613 113.255 181.658 113.787 181.702C112.759 179.947 115.788 179.226 116.754 175.205C115.899 174.92 115.045 174.636 114.19 174.351C114.382 175.399 114.567 176.472 114.757 177.529ZM82.9782 476.574C82.0845 477.93 85.7485 480.938 85.5966 478.654C85.4813 476.915 83.4577 475.849 82.9782 476.574ZM177.838 765.626C177.573 764.665 177.286 763.665 177.018 762.706C176.108 762.598 175.197 762.487 174.284 762.374C174.285 762.376 174.286 762.378 174.287 762.38C175.457 763.429 176.656 764.541 177.838 765.626ZM102.024 569.598C101.226 566.578 100.441 563.546 99.6714 560.507C99.1765 560.582 98.6817 560.656 98.1868 560.731C100.631 563.416 98.9866 565.064 99.0271 565.807C99.0265 565.804 99.0257 565.8 99.0251 565.797C99.1472 568.179 99.3553 570.425 99.2706 572.727C100.187 571.682 101.105 570.638 102.024 569.598ZM101.385 580.74C104.695 579.399 104.93 578.663 101.423 574.553C101.043 574.836 100.663 575.12 100.283 575.404C101.101 577.773 102.232 578.991 100.339 578.992C100.687 579.576 101.035 580.156 101.385 580.74ZM92.2947 532.353C91.2948 533.131 93.2676 537.469 93.7776 537.111C93.9768 536.975 94.2485 530.831 92.2947 532.353ZM125.49 143.751C124.888 144.688 124.288 145.62 123.69 146.549C123.801 145.074 123.915 143.591 124.034 142.1C124.519 142.651 125.005 143.202 125.49 143.751ZM124.725 130.871C125.407 130.297 127.556 133.715 129.874 129.657C128.811 132.831 127.749 136.019 126.691 139.214C126.734 137.555 126.775 135.902 126.818 134.249C125.867 134.203 124.916 134.156 123.965 134.11C124.216 133.034 124.47 131.955 124.725 130.871ZM128.126 128.258C125.243 129.152 128.293 120.106 128.877 119.366C129.009 119.204 131.048 118.94 131.535 118.747C131.05 120.1 130.564 121.456 130.077 122.817C130.782 122.557 131.487 122.297 132.193 122.037C131.805 123.697 131.422 125.346 131.042 126.992C130.74 126.12 130.438 125.252 130.137 124.378C129.468 125.666 128.797 126.962 128.126 128.258ZM116.101 164.438C116.541 163.329 116.986 162.213 117.433 161.091C116.503 161.028 115.573 160.964 114.643 160.901C114.41 161.584 114.178 162.265 113.947 162.943C114.665 163.442 115.383 163.94 116.101 164.438ZM123.008 140.948C126.513 144.045 115.989 145.41 121.152 141.3C121.677 140.884 122.668 140.652 123.008 140.948ZM130.578 116.176C128.884 111.567 135.16 114.731 132.029 117.379C131.866 117.51 130.701 116.521 130.578 116.176ZM140.149 89.6567C140.275 89.3811 142.584 89.6486 141.571 86.1846C141.979 85.8233 142.386 85.4618 142.795 85.0998C143.389 86.516 140.656 95.7555 139.014 93.7361C139.488 92.3437 139.556 91.0646 140.149 89.6567ZM129.091 95.5213C128.653 96.899 128.213 98.2851 127.778 99.6605C128.606 99.4564 129.434 99.2522 130.262 99.0476C130.199 99.7814 130.137 100.514 130.075 101.246C128.514 101.96 126.948 102.693 125.385 103.416C126.281 100.385 127.171 97.3832 128.07 94.3618C128.41 94.7485 128.75 95.135 129.091 95.5213ZM114.412 131.031C116.176 128.716 116.425 125.198 118.092 121C118.095 120.998 118.098 120.997 118.1 120.996C118.186 120.788 119.235 120.742 119.516 120.075C119.751 119.497 122.884 107.682 124.114 109.138C123.902 114.056 121.186 114.972 124.253 117.27C123.449 117.223 122.644 117.176 121.84 117.129C119.041 120.952 121.132 123.052 121.195 125.787C120.65 125.581 120.105 125.376 119.56 125.17C118.933 126.751 118.313 128.318 117.686 129.907C118.127 129.809 118.568 129.712 119.009 129.614C118.807 130.181 118.606 130.747 118.405 131.312C116.29 132.111 115.295 133.715 114.412 131.031ZM132.25 89.6999C128.56 86.924 135.908 75.7401 137.113 69.8375C138.521 73.6907 135.121 77.5945 133.915 80.7847C131.589 86.9458 134.692 83.2381 134.975 84.5329C135.118 85.1641 131.164 87.7071 132.25 89.6999ZM111.77 140.84C113.191 137.867 112.838 135.813 115.314 133.676C115.538 134.008 115.763 134.34 115.988 134.671C115.383 135.487 111.885 142.628 111.77 140.84ZM141.236 62.055C137.535 67.4596 142.376 65.9141 138.418 67.961C138.994 65.8638 139.573 63.7577 140.153 61.6521C140.514 61.7864 140.875 61.9207 141.236 62.055ZM67.4757 485.817C67.7449 488.427 67.3853 491.471 69.268 492.755C69.2563 490.972 69.244 489.141 69.2452 487.357C68.6559 486.852 68.065 486.332 67.4757 485.817ZM44.7378 411.875C44.356 412.511 45.6135 414.878 45.6236 415.138C45.6402 415.613 45.0553 415.504 44.9039 415.516C45.1224 418.616 46.8163 415.688 47.2947 417.961C47.3701 418.351 46.71 423.775 46.9009 425.954C47.1833 429.316 47.2713 432.678 47.3825 433.938C47.5653 436.059 49.1789 439.896 49.5199 443.368C49.6574 444.794 48.6197 445.388 48.7654 446.829C49.6499 456.092 53.1453 474.078 53.623 482.307C53.7274 484.356 52.5925 486.46 52.8596 487.517C53.4917 488.287 54.1261 489.062 54.7593 489.819C50.5281 493.072 54.759 493.354 55.613 496.053C55.8889 496.928 55.709 497.63 55.4697 498.14C55.2363 498.63 54.9468 498.942 54.9668 499.058C55.2413 500.624 56.0143 501.299 56.3202 502.524C56.6601 503.889 56.368 505.977 56.5605 506.458C56.6859 506.749 58.3322 505.492 59.1848 510.863C60.0583 516.341 60.7958 521.774 61.7041 527.347C66.8256 524.524 62.812 523.594 62.2183 521.364C62.0586 520.763 62.9921 520.999 62.8617 520.475C62.4972 518.993 61.1575 516.287 61.1534 515.004C61.1499 513.628 63.2361 513.746 62.2111 512.18C62.1586 512.1 61.3737 512.51 61.1681 512.135C59.1251 508.343 60.3512 506.79 59.5797 501.714C59.4711 500.993 59.1998 499.501 58.8517 497.609C57.5259 490.587 55.3898 477.894 55.7645 477.264C58.1657 473.261 61.1204 494.634 61.3778 497.212C61.3781 497.216 61.3783 497.219 61.3785 497.223C61.4354 498.111 60.3729 497.337 60.3225 498.163C60.3043 498.506 62.5398 501.307 63.1721 504.285C63.9346 507.907 63.9687 515.437 64.6139 518.896C70.1465 548.667 75.0678 578.136 82.9024 607.253C83.0711 607.874 84.3149 608.411 84.8707 610.421C88.6264 623.998 92.7533 637.652 97.6268 651.014C106.389 675.015 116.025 698.767 126.946 721.678C130.671 729.499 135.264 736.82 138.375 744.981C139.556 745.633 140.732 746.27 141.902 746.892C140.114 744.662 139.488 739.363 139.299 738.908C139.234 738.757 138 738.216 137.307 736.669C136.321 734.474 136.569 733.229 136.484 733.053C136.228 732.51 135.67 733.213 135.426 732.692C133.591 728.756 131.97 725.84 130.319 722.296C128.419 718.207 128.87 715.571 126.028 713.289C126.464 712.692 126.9 712.095 127.336 711.497C123.765 710.397 118.232 697.077 116.105 691.6C115.43 689.886 116.6 689.751 116.36 689.182C116.205 688.812 114.908 689.566 113.298 684.945C112.513 682.668 113.265 681.663 112.769 680.547C112.498 679.94 111.551 680.446 111.187 679.557C109.109 674.469 107.764 670.175 105.967 665.051C105.462 663.612 106.294 663.288 106.159 662.976C105.674 661.84 103.48 660.366 102.337 657.369C101.638 655.533 100.67 652.978 99.6896 650.241C98.1436 645.931 96.6768 641.192 96.272 638.58C96.1749 637.957 97.0237 637.127 96.8636 636.699C96.6199 636.059 95.4763 636.156 95.4323 636.043C94.688 633.86 96.1095 634.853 95.387 633.462C94.9979 632.708 93.5184 632.28 92.7902 630.472C91.8309 628.078 93.4263 628.103 92.9631 627.131C92.9071 627.03 91.8938 627.312 91.5487 626.315C90.2404 622.524 88.3674 617.025 87.3405 613.362C87.0441 612.313 87.5054 611.342 87.1096 609.87C86.2575 606.937 81.4703 590.142 81.5724 588.635C81.5784 588.478 83.45 589.617 82.8207 587.227C82.0245 586.682 81.2288 586.133 80.4335 585.583C81.157 584.172 81.8845 582.766 82.615 581.361C79.1465 582.227 77.0124 575.431 80.5931 574.695C80.5664 573.908 80.5406 573.121 80.5158 572.334C77.7045 571.311 78.3772 570.061 76.2656 567.327C76.9172 566.687 77.5694 566.048 78.2222 565.41C77.6929 565.399 77.1635 565.388 76.634 565.377C79.0116 563.163 75.7053 561.079 75.6218 560.755C75.2982 559.519 75.7973 558.433 75.6532 557.852C75.1244 555.681 73.2013 551.129 73.1395 548.472C73.1385 548.347 74.3324 548.233 74.3329 547.476C74.3348 546.11 72.5948 546.32 74.2668 544.171C73.6921 543.914 73.1175 543.658 72.543 543.401C72.7318 542.974 72.9208 542.547 73.1101 542.12C72.5494 539.931 71.9919 537.724 71.4435 535.531C73.8076 537.177 74.4809 534.653 72.511 532.739C71.8434 532.092 70.7555 532.976 70.5266 532.761C70.2071 532.473 69.0226 522.349 69.7004 521.553C69.2358 521.147 68.7719 520.743 68.3074 520.334C69.029 519.961 69.7508 519.588 70.4727 519.215C70.1602 519 69.8478 518.784 69.5355 518.569C70.4268 515.742 66.2019 509.493 66.2456 508.215C66.2676 507.535 69.6231 507.596 68.7764 504.504C67.8632 504.54 66.95 504.576 66.0368 504.613C65.7911 503.911 65.5462 503.211 65.3022 502.512C65.1657 501.159 66.4018 498.921 67.4547 498.694C66.7506 498.373 66.0466 498.052 65.3428 497.731C65.7027 497.454 65.9336 497.017 66.0605 496.476C66.5981 494.157 65.263 489.958 63.9152 488.154C64.4409 487.363 64.9648 486.553 65.4919 485.758C64.5937 484.915 63.6976 484.072 62.8036 483.231C62.2688 481.045 63.8598 483.214 63.9007 482.727C63.9764 481.694 61.1626 476.917 63.8817 476.898C63.7989 476.205 63.7174 475.515 63.6373 474.826C62.8282 474.57 62.0193 474.313 61.2098 474.048C63.6982 472.522 62.5075 470.593 62.9891 466.269C62.3416 465.987 61.6942 465.704 61.0465 465.415C61.7629 464.005 62.4853 462.613 63.2116 461.223C62.1763 461.062 61.141 460.899 60.1058 460.735C59.9011 460.18 59.6973 459.626 59.4943 459.074C61.6327 457.701 58.9871 455.855 59.8181 454.713C61.0324 453.053 62.7579 454.074 63.3539 456.899C64.9629 456.51 63.4164 448.138 63.1484 446.183C62.8377 446.339 62.5271 446.495 62.2165 446.651C62.6392 448.633 63.0702 450.603 63.5113 452.584C59.5315 454.651 60.1327 449.099 59.3966 446.638C59.3275 446.419 57.6466 445.239 57.5965 442.7C57.5756 441.716 59.5918 437.733 59.6722 436.994C60.3322 431.064 57.324 435.566 59.8543 429.652C57.7216 430.977 59.354 427.577 58.7598 424.147C58.6538 423.577 56.6458 418.676 56.59 418.331C56.2211 416.241 58.2564 418.449 57.6366 415.439C57.1108 415.091 56.5854 414.743 56.0602 414.394C56.0359 413.685 56.0128 412.98 55.9909 412.275C60.4303 407.843 57.0518 406.948 56.5848 405.431C56.3975 404.817 57.6055 405.586 57.3218 403.989C57.2167 403.386 56.2114 402.748 56.1164 401.119C55.8289 396.035 60.0673 394.307 55.641 389.644C56.2816 388.929 56.9232 388.211 57.5657 387.495C56.7987 387.008 56.0321 386.522 55.2659 386.035C57.5154 382.338 55.2263 383.664 55.2634 382.327C55.3109 380.637 55.4566 378.111 55.8036 375.87C56.1846 373.387 56.808 371.263 57.7778 370.951C53.6182 367.806 58.4829 364.275 58.3558 363.081C57.8648 362.351 57.3747 361.623 56.8857 360.896C57.4284 360.075 57.9726 359.252 58.5179 358.438C54.3565 358.694 58.5996 354.511 58.6829 354.102C58.7584 353.627 57.8459 346.92 58.0212 344.445C58.1818 341.972 59.5887 337.757 59.6199 337.38C59.6482 336.946 58.8213 332.676 59.1102 329.401C59.2879 326.513 62.6736 309.797 60.7653 310.649C60.1254 311.696 59.5027 313.221 59.1125 314.561C57.7622 318.687 54.8018 343.635 54.3454 350.081C53.5555 358.485 53.2142 367.176 52.9535 375.825C52.8146 380.416 52.6971 384.987 52.5566 389.498C52.5334 390.262 51.4588 390.379 51.4356 391.038C51.4053 392.045 52.4927 394.56 52.478 395.546C52.4098 399.219 52.3105 403.669 52.3279 405.643C52.3695 410.034 51.8175 413.05 51.8344 416.384C51.838 417.417 53.3816 422.627 53.0117 426.238C52.7438 426.911 52.4762 427.572 52.2099 428.24C51.7519 426.415 50.6022 421.572 50.4092 419.32C50.1203 415.951 50.937 414.16 50.8815 412.924C50.8319 411.881 49.6938 406.586 49.6293 404.154C49.6072 403.4 50.7315 403.225 50.7165 402.584C50.627 399.087 50.5572 394.487 49.4474 391.456C49.8045 392.689 50.5016 384.958 50.5093 384.551C50.5134 383.853 49.4634 383.095 49.4766 381.672C49.5054 378.933 51.7054 379.311 49.5492 375.869C49.5742 375.837 49.5993 375.805 49.6244 375.773C50.2554 374.965 50.8873 374.161 51.5202 373.363C48.57 373.245 52.8116 362.688 49.3676 359.538C48.9399 359.435 47.4303 373.313 47.381 374.466C47.353 374.877 47.3288 375.301 47.3081 375.737C46.9731 382.563 47.5519 391.958 47.1473 398.253C47.0063 400.254 45.34 406.643 45.3906 407.114C45.4591 407.884 46.4644 407.163 46.5087 407.495C47.4463 414.287 45.3084 410.95 44.7378 411.875ZM115.013 123.576C114.205 125.477 113.399 127.38 112.593 129.286C112.035 128.929 111.478 128.572 110.92 128.214C111.473 127.408 112.029 126.594 112.583 125.788C112.463 124.977 112.343 124.165 112.225 123.351C113.155 123.426 114.084 123.501 115.013 123.576ZM114.187 117.874C114.488 116.077 115.799 116.453 116.002 116.085C116.611 114.989 116.452 113.809 116.877 112.686C119.448 115.08 117.061 117.337 114.187 117.874ZM100.812 152.361C101.091 152.024 105.251 150.623 103.197 146.669C104.922 144.831 106.641 143.024 108.371 141.193C105.597 144.357 105.38 149.974 104.706 151.743C104.447 152.422 103.392 152.206 103.188 152.748C102.027 155.86 103.273 159.714 99.8165 158.891C101.802 156.243 100.465 152.787 100.812 152.361ZM108.623 133.772C109.497 133.516 110.372 133.259 111.247 133.001C110.602 134.825 109.968 136.623 109.325 138.454C108.792 137.713 108.26 136.972 107.728 136.229C108.028 135.404 108.323 134.594 108.623 133.772ZM65.6436 274.466C65.8631 273.319 66.0893 272.156 66.3155 271.012C65.7739 270.975 65.5275 272.291 65.079 272.715C65.0794 272.713 65.0798 272.711 65.0802 272.709C64.575 273.176 63.9356 272.818 63.4522 273.75C64.1826 273.989 64.9131 274.228 65.6436 274.466ZM140.457 749.189C141.289 751.017 149.543 767.488 150.611 765.225C151.106 764.027 147.54 758.836 146.712 757.141C145.61 754.901 144.52 747.924 140.457 749.189ZM154.758 778.686C156.67 778.101 151.747 767.547 150.932 766.701C150.789 767.039 150.398 767.644 150.413 767.987C150.528 769.715 154.133 776.188 154.758 778.686ZM51.8828 339.26C52.931 338.401 53.9808 337.551 55.0328 336.701C53.7311 336.852 52.4294 337.006 51.1277 337.161C51.378 337.863 51.6299 338.56 51.8828 339.26ZM52.8481 428.948C53.6429 444.309 54.9834 459.635 56.8365 474.927C56.1359 473.641 55.44 472.36 54.7486 471.085C53.3514 457.847 52.6404 443.709 51.0721 430.959C51.6632 430.289 52.255 429.614 52.8481 428.948ZM93.9155 154.602C92.6182 158.348 92.4608 161.768 89.6622 165.401C89.586 161.025 92.3729 159.823 91.6217 155.355C91.6224 155.353 91.6231 155.351 91.6238 155.349C92.3873 155.1 93.1513 154.851 93.9155 154.602ZM68.1433 239.045C67.5545 237.665 66.9714 236.277 66.3901 234.894C66.0396 236.29 65.6877 237.711 65.3461 239.111C66.2785 239.088 67.2109 239.066 68.1433 239.045ZM67.0524 562.976C69.8153 566.629 68.6392 577.774 71.7214 580.539C71.9217 580.714 72.4425 578.545 75.0541 581.256C74.1158 578.97 73.3406 577.376 71.8185 577.536C72.1593 576.712 72.5015 575.89 72.8447 575.069C72.2001 573.98 71.5574 572.889 70.9165 571.796C72.4219 571.597 72.3215 571.523 70.9133 569.937C71.1068 569.03 71.3017 568.124 71.4978 567.219C70.7961 567.006 70.0945 566.791 69.3929 566.576C70.1149 565.672 70.8381 564.77 71.5625 563.87C70.0214 561.289 68.6824 563.343 67.0524 562.976ZM64.5093 548.648C64.2768 549.394 69.2395 568.021 70.4168 558.845C69.862 556.646 69.3133 554.44 68.7724 552.237C64.2441 555.067 67.4088 548.113 67.4193 547.6C67.4293 545.124 65.6775 542.307 65.409 540.56C65.1787 539.056 65.8933 538.005 65.6748 536.963C64.9265 533.403 63.8754 527.76 61.7041 527.347C62.1586 530.136 62.6517 532.971 63.2402 535.856C63.8629 538.9 62.448 541.965 66.1956 547.192C66.1912 548.663 64.5595 548.46 64.5093 548.648ZM67.4843 231.431C69.453 232.077 70.8237 224.883 70.0513 224.629C69.5885 224.495 68.991 226.788 68.7261 227.082C68.7255 227.084 68.725 227.086 68.7244 227.088C68.6111 227.206 68.0268 226.303 67.5264 227.337C67.508 228.704 67.4958 230.061 67.4843 231.431ZM123.902 725.375C123.2 726.77 133.374 747.111 134.202 747.415C134.422 747.512 134.768 747.057 135.065 746.993C131.263 742.974 129.758 735.349 127.742 730.754C127.181 729.479 126.61 730.204 126.563 730.14C126.561 730.137 126.56 730.134 126.558 730.131C126.213 729.403 126.528 725.311 123.902 725.375ZM74.3083 587.388C74.3988 586.373 74.4923 585.365 74.5869 584.353C73.9051 584.264 73.2233 584.174 72.5414 584.083C72.5419 584.085 72.5425 584.087 72.543 584.089C73.1294 585.192 73.7172 586.288 74.3083 587.388ZM80.7944 620.219C81.1631 619.867 81.5321 619.516 81.9014 619.165C81.2846 616.815 80.6854 614.472 80.096 612.114C80.4076 612.281 80.7192 612.449 81.0308 612.616C80.7081 608.906 78.7834 607.859 78.4982 605.911C78.4988 605.913 78.4994 605.915 78.4999 605.917C78.4715 605.708 79.3168 605.22 79.1476 604.458C78.7541 602.707 77.8142 597.657 76.7451 597.285C74.4479 596.512 77.9697 606.299 78.4047 608.178C78.5913 609.032 78.0718 610.261 78.1937 610.778C78.3301 611.342 79.6136 611.81 79.9614 613.184C80.0577 613.585 80.047 618.366 80.7944 620.219ZM95.8051 660.342C96.4903 659.28 95.02 658.19 94.9718 657.593C94.9601 657.451 96.1355 658.14 95.9173 656.846C95.2435 656.712 94.5693 656.577 93.895 656.44C94.5329 657.752 95.1668 659.045 95.8051 660.342ZM69.7029 219.258C69.4301 219.416 68.4804 223.221 68.5644 223.453C69.7466 226.212 71.6812 218.295 69.7029 219.258ZM98.3146 123.79C95.1482 124.577 104.928 105.173 105.522 103.164C107.086 103.839 103.732 108.084 106.843 106.346C104.758 108.331 103 115.23 102.091 116.666C101.537 117.548 100.068 117.294 99.972 117.423C99.6112 117.937 99.4284 123.501 98.3146 123.79ZM112.715 86.8129C111.708 88.6237 110.7 90.4391 109.692 92.2559C110.343 89.913 110.992 87.5809 111.646 85.2404C112.002 85.7649 112.358 86.2891 112.715 86.8129ZM112.88 84.1216C111.307 83.6198 114.891 77.5108 115.166 75.6726C117.086 78.5689 113.411 80.8972 112.88 84.1216ZM72.9356 192.9C70.9617 195.637 75.3672 198.43 74.4065 194.066C74.3716 193.932 73.0298 192.79 72.9356 192.9ZM60.3414 565.409C60.4185 565.951 60.273 572.988 61.1524 573.203C63.934 573.871 61.9629 569.711 62.6 568.038C63.6336 565.34 65.6394 568.549 63.488 562.975C64.0418 563.105 64.5956 563.234 65.1494 563.364C64.6072 559.955 61.347 561.786 60.7704 561.273C60.5945 561.115 60.4503 558.936 60.1494 558.599C56.3496 554.393 60.2464 564.912 60.3414 565.409ZM53.1395 269.99C50.4919 276.027 53.1585 273.71 51.9073 280.16C52.9713 280.558 53.9402 270.997 53.1395 269.99ZM51.0344 503.684C52.523 510.145 51.9587 515.759 54.9719 521.504C57.8922 520.604 51.5175 501.863 51.0344 503.684ZM148.258 797.683C142.902 772.689 126.817 746.836 115.621 721.953C114.36 719.2 115.367 718.471 114.802 717.54C114.435 716.932 113.593 717.447 113.202 716.589C103.762 695.824 94.8169 675.534 86.905 655.03C82.986 644.866 79.6062 634.544 76.7191 624.13C76.1457 622.139 75.4381 611.939 71.8427 610.708C69.0923 609.771 72.8111 616.249 73.1271 617.404C73.3584 618.277 72.2817 618.62 72.4446 619.205C72.6176 619.824 73.2134 619.101 73.43 619.814C74.3503 622.826 75.0397 626.214 75.9346 628.92C78.909 637.935 82.0029 646.838 85.3546 655.611C91.8462 672.592 98.4744 689.322 105.694 706.126C107.018 709.197 105.912 708.918 105.977 709.077C105.98 709.078 105.982 709.079 105.985 709.08C113.092 725.586 123.696 743.303 131.472 760.598C136.807 772.81 142.603 785.044 147.204 796.933C147.547 797.16 147.91 797.435 148.258 797.683ZM60.6256 550.902C57.606 553.205 61.0404 552.895 60.8764 559.032C61.5449 559.391 62.2136 559.75 62.8825 560.107C62.1166 557.042 61.3638 553.969 60.6237 550.892C60.6243 550.896 60.625 550.899 60.6256 550.902ZM67.8431 589.76C63.5784 591.831 69.9818 604.101 70.7452 610.152C73.2588 610.616 69.9951 602.401 69.7336 600.33C69.5886 599.29 70.546 593.361 68.287 589.594C68.139 589.649 67.9911 589.705 67.8431 589.76ZM84.4414 142.878C84.2526 143.836 84.0621 144.801 83.8711 145.77C85.1509 143.619 86.4219 141.507 87.7065 139.367C86.118 142.933 84.5415 146.495 82.9773 150.056C82.3089 149.054 81.6348 148.069 80.9645 147.075C82.1186 145.684 83.2872 144.257 84.4414 142.878ZM80.827 154.963C82.6694 148.411 82.814 155.945 81.1933 157.197C80.2224 157.941 80.6388 155.639 80.827 154.963ZM73.6806 171.261C73.0619 167.719 74.979 161.568 77.4431 164.796C75.3789 167.014 75.3218 169.098 74.1444 172.114C73.8533 172.862 73.4962 173.666 73.0286 174.54C72.6397 173.651 72.2528 172.758 71.868 171.86C71.869 171.857 71.8701 171.854 71.8711 171.851C72.112 171.771 72.3529 171.691 72.5939 171.611C72.956 171.494 73.3183 171.377 73.6806 171.261ZM79.9032 151.369C83.1597 147.767 78.3926 159.781 78.4926 155.532C78.4979 155.331 79.7771 151.507 79.9032 151.369ZM133.008 774.075C134.225 774.056 132.675 771.019 132.229 769.966C130.306 765.413 127.044 759.949 124.902 755.249C124.748 755.754 124.595 756.258 124.44 756.76C127.269 762.551 130.144 768.33 133.008 774.075ZM117.874 740.721C116.331 737.481 114.828 734.284 113.343 731.085C113.205 730.788 111.698 729.771 111.976 730.917C113.909 734.161 115.874 737.428 117.874 740.721ZM50.0324 530.18C49.9068 532.968 45.4331 525.8 48.8179 525.565C49.2192 527.1 49.6264 528.651 50.0324 530.18ZM44.4753 505.475C45.0604 507.097 45.653 508.746 46.2436 510.365C45.8616 510.43 45.4796 510.496 45.0975 510.561C44.8887 508.875 44.6782 507.16 44.4753 505.475ZM138.454 786.708C138.875 784.554 136.796 780.838 135.629 778.454C135.423 780.583 137.885 784.255 138.454 786.708ZM56.5783 570.461C57.4014 570.056 59.5313 580.694 57.1639 577.375C56.96 575.069 56.7649 572.764 56.5783 570.461ZM60.1979 592.281C59.4554 590.054 59.3431 588.225 60.8344 588.364C61.0607 589.578 61.2904 590.796 61.5226 592.013C61.081 592.102 60.6395 592.192 60.1979 592.281ZM67.4105 181.995C66.3622 185.755 65.3215 189.557 64.3121 193.334C63.9835 193.081 63.655 192.829 63.3267 192.576C64.2983 188.938 65.3034 185.261 66.3119 181.636C66.6781 181.755 67.0443 181.875 67.4105 181.995ZM136.27 790.162C137.646 792.41 138.954 794.556 140.233 796.747C139.419 794.34 138.57 791.963 137.651 789.482C137.187 789.708 136.724 789.934 136.261 790.159C136.264 790.16 136.267 790.161 136.27 790.162ZM79.6635 129.604C74.0178 140.278 77.241 125.251 80.7998 123.18C80.7988 123.176 80.7978 123.172 80.7968 123.168C81.1099 122.987 81.986 123.914 82.5706 123.635C81.6817 124.61 80.7988 125.571 79.9104 126.55C80.143 127.812 80.3779 129.069 80.6153 130.322C80.2583 130.582 79.9015 130.842 79.5449 131.101C79.584 130.603 79.6236 130.104 79.6635 129.604ZM94.9607 84.0362C98.865 73.9939 97.7314 85.3205 93.8014 89.5598C93.3271 89.3448 94.5977 84.9701 94.9607 84.0362ZM85.9029 110.827C85.5685 112.524 85.2383 114.213 84.9123 115.894C84.534 115.988 84.1547 116.085 83.7754 116.182C83.9103 114.842 84.0428 113.512 84.1803 112.17C84.7541 111.723 85.3283 111.275 85.9029 110.827ZM62.8004 162.291C61.5982 164.811 63.927 169.274 65.7993 160.561C65.4301 160.444 65.0608 160.326 64.6915 160.209C64.6383 160.566 64.6575 161.666 64.6125 161.71C64.4697 161.833 63.3002 161.247 62.8004 162.291ZM92.2756 61.7716C92.244 61.4323 88.4664 59.8608 93.5431 58.3263C93.6383 57.3271 93.7294 56.3397 93.8236 55.3444C94.7545 55.4236 95.6855 55.5028 96.6165 55.582C94.6656 58.8366 96.2356 59.8454 96.1781 60.1122C95.9064 61.3376 95.3469 60.1494 95.0565 60.8971C94.3101 62.824 93.2709 67.4564 91.5013 64.5268C90.8703 63.4698 92.3073 62.1109 92.2756 61.7716ZM87.5639 67.823C88.0407 67.5158 88.6579 69.2993 89.0933 69.095C89.4734 68.9147 92.175 65.1149 93.6487 66.9568C93.3128 67.6215 92.9772 68.2853 92.6422 68.9483C92.0365 68.9916 91.4309 69.0349 90.8254 69.0782C91.0577 69.9249 91.2875 70.7788 91.5193 71.6277C89.8205 72.2907 87.2742 74.0908 87.2828 70.8426C87.0044 71.9367 86.7271 73.0288 86.4509 74.1186C86.8637 74.8919 87.2767 75.6647 87.6902 76.4366C86.8595 75.8068 86.029 75.1766 85.1986 74.5462C85.9861 72.3037 86.7724 70.0684 87.5639 67.823ZM100.008 35.3808C100.443 35.6888 100.878 35.9967 101.313 36.3046C101.852 32.1187 103.754 25.9894 105.506 30.5289C103.81 35.838 102.115 41.1511 100.425 46.465C99.9333 46.6763 99.4421 46.8854 98.9492 47.0991C101.796 43.7284 95.3937 42.7166 98.3664 39.958C98.8686 39.4953 100.333 41.9276 100.337 37.8447C99.8048 37.7917 99.2724 37.7386 98.7399 37.6855C99.1623 36.918 99.5851 36.1497 100.008 35.3808ZM113.108 2.57647C109.946 8.89165 110.9 0.988956 112.82 0.320188C112.82 0.322256 112.819 0.324345 112.818 0.326453C118.072 -1.50393 113.451 4.93482 113.314 5.37863C113.132 5.97066 115.49 8.40272 110.127 9.99326C111.12 7.52251 112.115 5.04591 113.108 2.57647ZM104.339 23.8056C104.452 23.2159 105.066 23.7952 105.144 23.5517C105.145 23.5496 105.146 23.5475 105.147 23.5454C106.308 19.9626 108.797 11.3312 111.488 11.303C110.704 13.9886 106.845 25.8482 104.981 25.964C104.767 25.2449 104.553 24.5254 104.339 23.8056ZM96.8236 49.3075C94.4936 50.9138 96.1092 45.9443 97.2894 44.9306C97.5324 44.7449 99.2371 47.6437 96.8236 49.3075ZM35.4654 218.518C35.0721 223.882 37.7733 217.411 38.6426 220.123C38.7724 219.116 38.9059 218.102 39.0372 217.104C37.8471 217.569 36.6575 218.036 35.4654 218.518ZM14.4837 459.46C14.4239 460.715 15.2957 460.038 15.3197 460.144C15.3731 460.959 14.6938 461.805 14.8053 462.111C16.9191 467.703 17.307 463.796 17.4815 463.722C18.3874 463.507 19.6157 464.897 20.4514 462.71C19.9986 461.492 19.5455 460.238 19.0983 459.008C19.5482 458.33 19.9999 457.662 20.4513 456.982C19.1204 454.557 19.1273 457.897 17.71 458.399C17.1525 458.6 16.2421 456.292 14.4837 459.46ZM30.1072 226.974C31.4717 228.2 32.9485 230.753 35.0291 229.124C35.0297 229.121 35.0302 229.119 35.0308 229.117C35.4132 228.811 35.9455 227.356 36.4691 226.991C35.2144 223.15 32.7249 223.862 30.1072 226.974ZM9.75142 436.724C9.99691 434.619 10.2529 432.534 10.5175 430.44C11.4901 430.422 12.4627 430.404 13.4353 430.386C13.2338 431.498 13.0363 432.634 12.8399 433.744C13.3056 434.103 13.7716 434.462 14.238 434.821C15.2611 433.39 16.2883 431.957 17.3199 430.533C16.8427 428.923 16.3698 427.285 15.9038 425.669C15.4278 426.446 14.9532 427.227 14.4801 428.013C13.7132 424.018 16.1174 424.768 16.8752 421.42C15.9275 420.322 14.9821 419.211 14.0397 418.11C14.8823 416.428 15.7305 414.743 16.5849 413.075C16.08 410.318 15.3873 410.096 14.408 411.987C13.1897 410.644 15.0034 409.083 14.4854 407.439C14.4435 407.303 13.3393 407.586 13.3232 407.466C12.3984 398.901 15.357 399.323 15.4583 397.953C15.5309 396.991 13.5389 393.16 12.8697 393.101C11.9701 393.021 8.42189 401.089 8.3005 388.497C5.81865 395 8.44049 402.444 12.0005 397.593C11.6411 399.655 12.7155 408.722 12.6347 409.308C12.4926 410.161 11.1124 409.898 11.1051 410.957C11.1057 411.587 14.2748 413.139 11.7163 418.197C12.2548 418.81 12.7941 419.423 13.3344 420.037C12.9352 420.647 12.5371 421.266 12.1392 421.872C10.5789 420.719 9.02068 419.538 7.46615 418.37C9.28794 423.18 6.4107 427.365 9.16542 430.204C9.00322 432.779 8.78346 434.059 7.39239 433.027C7.43738 433.801 7.48303 434.565 7.53051 435.339C8.27028 435.801 9.01058 436.262 9.75142 436.724ZM28.7402 242.782C26.7124 244.937 29.6956 246.535 29.9597 246.186C31.4238 244.234 29.7969 241.662 28.7402 242.782ZM15.7758 454.715C16.36 451.858 16.9613 449.007 17.5798 446.16C16.5548 446.24 15.5298 446.32 14.5047 446.4C14.9122 449.179 15.336 451.95 15.7758 454.715ZM33.4289 217.175C34.2404 217.12 35.0495 217.074 35.8595 217.026C33.9197 213.358 38.6139 211.498 38.2081 209.832C38.1178 209.474 36.6347 209.734 36.1864 210.266C35.9009 210.594 33.3082 216.588 33.4289 217.175ZM72.1166 98.8587C72.2348 100.057 72.3444 101.28 72.4608 102.487C71.6656 102.136 70.8704 101.786 70.0752 101.435C70.1071 100.87 70.1394 100.303 70.1721 99.7364C70.8214 99.4404 71.4691 99.1491 72.1166 98.8587ZM69.1971 111.089C68.4693 112.924 67.753 114.734 67.0305 116.566C68.7816 109.253 66.3602 114.913 66.8233 110.243C67.6146 110.525 68.4058 110.807 69.1971 111.089ZM60.9332 129.264C60.5239 128.866 60.1146 128.468 59.7056 128.069C60.3534 126.21 61.0058 124.345 61.6553 122.495C59.5471 123.076 57.4463 123.64 55.3343 124.238C55.0906 124.922 54.8477 125.605 54.6058 126.286C56.7146 127.279 58.8238 128.272 60.9332 129.264ZM17.9 514.298C18.0603 515.479 20.2996 519.374 20.8394 519.092C21.2528 517.261 21.6681 515.422 22.09 513.605C21.0718 513.763 20.0537 513.922 19.0356 514.081C19.5024 513.757 19.9688 513.43 20.4353 513.104C19.8952 512.187 19.3565 511.273 18.8192 510.361C19.629 509.727 20.4394 509.095 21.2503 508.464C20.1557 508.132 19.0612 507.798 17.967 507.465C16.9209 512.467 18.6985 512.012 18.8384 512.999C18.9111 513.499 18.3336 513.92 18.0453 514.146C17.9969 514.196 17.9484 514.247 17.9 514.298ZM9.07181 453.363C9.33329 459.254 12.3692 462.312 10.5582 466.778C15.0273 463.593 8.44706 446.534 12.1058 440.047C11.2885 439.458 10.4722 438.868 9.65667 438.278C10.5678 441.606 9.14953 444.04 9.04664 445.715C8.9646 447.029 9.76473 446.832 9.76067 446.932C9.76104 446.937 9.7614 446.941 9.76177 446.946C9.67086 450.034 8.97185 451.032 9.07181 453.363ZM30.8834 212.019C29.2882 213.223 28.7052 215.899 30.4255 216.388C31.3135 215.053 32.2088 213.707 33.1053 212.374C32.5825 212.554 31.1547 211.817 30.8834 212.019ZM55.4648 129.79C54.5232 130.728 54.0927 133.535 55.9453 132.9C56.2739 132.787 56.1626 129.793 58.2598 132.252C59.1103 129.667 56.0036 129.258 55.4648 129.79ZM10.7431 353.602C10.7331 352.577 10.726 351.535 10.7205 350.507C10.0107 350.235 9.30103 349.963 8.59156 349.689C9.30543 350.993 10.0223 352.306 10.7431 353.602ZM33.2298 198.984C36.9978 198.649 34.3385 195.474 37.8448 193.837C38.1334 192.934 38.4153 192.059 38.7048 191.162C38.7054 191.16 38.7061 191.158 38.7067 191.156C37.7906 190.857 36.8746 190.558 35.9585 190.26C35.0418 193.142 34.1299 196.056 33.2298 198.984ZM8.78764 417.555C9.21201 416.898 9.63736 416.244 10.0636 415.594C9.5039 414.482 8.94679 413.369 8.39202 412.246C8.03591 412.87 7.68085 413.502 7.32628 414.125C7.81048 415.264 8.29757 416.407 8.78764 417.555ZM37.6334 183.039C36.2571 186.046 38.8369 188.12 40.0608 184.11C40.5722 182.432 39.0797 179.889 37.6334 183.039ZM30.5236 575.302C30.5428 574.147 30.5641 572.994 30.5876 571.841C29.8772 571.601 29.1669 571.361 28.4567 571.119C29.1425 572.514 29.8315 573.909 30.5236 575.302ZM60.829 115.539C61.3942 115.875 61.9594 116.212 62.5246 116.549C62.0755 117.429 61.6279 118.307 61.1816 119.183C60.6588 118.739 60.1361 118.295 59.6136 117.85C60.0176 117.082 60.4228 116.311 60.829 115.539ZM29.346 567.827C29.284 566.924 29.2232 566.021 29.1637 565.12C28.7356 564.594 28.3075 564.066 27.88 563.539C27.7425 564.423 27.6059 565.308 27.4704 566.192C28.0951 566.738 28.7203 567.283 29.346 567.827ZM47.3164 153.659C46.1796 154.617 46.9214 160.089 48.9097 156.03C50.1827 153.43 47.4888 153.515 47.3164 153.659ZM48.7124 147.044C45.8057 151.066 54.0329 150.093 51.2453 143.18C50.0484 148.793 48.8879 146.807 48.7124 147.044ZM58.6765 106.58C58.7197 106.47 59.7677 106.742 60.1214 105.869C61.3944 102.716 63.3063 98.6525 64.1932 96.3866C66.3076 90.9546 70.581 73.5463 74.2305 72.6797C74.9949 72.4988 76.4907 74.1086 76.646 73.9779C77.0871 73.5914 77.2219 70.4662 78.3855 71.4804C77.3657 74.2252 76.3571 76.9458 75.342 79.6917C74.6326 78.67 73.9239 77.6469 73.2158 76.6225C71.2279 83.6433 71.9971 81.3598 73.3593 84.0875C72.1312 84.9526 70.9045 85.8153 69.679 86.676C69.5671 89.5097 69.4727 92.3021 69.3662 95.136C68.9685 94.3445 68.5714 93.5518 68.1748 92.7581C65.6762 96.1693 66.7944 95.3734 67.5123 97.979C66.9059 97.7654 66.2996 97.5518 65.6932 97.3382C65.8379 101.563 63.7731 101.618 63.4629 102.413C62.8311 104.067 69.2443 108.705 59.871 112.487C62.3574 116.367 55.396 113.844 58.3934 116.663C52.9381 119.809 57.3627 111.714 58.94 107.702C58.9408 107.7 58.9416 107.698 58.9423 107.695C59.0626 107.393 58.2395 107.646 58.6765 106.58ZM54.0603 131.072C51.8529 127.223 47.8034 138.012 53.6065 135.974C53.9393 135.489 54.2726 135.002 54.6065 134.514C54.4264 133.359 54.2417 132.219 54.0626 131.066C54.0618 131.068 54.0611 131.07 54.0603 131.072ZM20.3507 236.117C19.2103 247.315 22.4901 241.527 21.4982 237.448C21.3051 236.628 20.9021 236.109 20.3507 236.117ZM7.29643 461.982C7.71147 462.104 8.12655 462.227 8.54166 462.349C7.78795 458.684 8.70319 451.388 6.02332 451.713C6.42448 455.157 6.84736 458.561 7.29643 461.982ZM3.23428 432.706C3.11573 433.526 2.93079 436.807 3.91733 436.353C4.5438 434.886 5.17604 433.445 5.81125 431.981C5.32673 431.347 4.84318 430.714 4.36059 430.081C4.25719 431.005 3.26406 432.485 3.23428 432.706Z" fill="white" fill-opacity="0.44"/>
</svg>
