<svg width="100" height="103" viewBox="0 0 100 103" fill="none" xmlns="http://www.w3.org/2000/svg">
<g clip-path="url(#clip0_0_346)">
<path d="M96.1767 30.6401C96.1767 29.0372 94.5491 27.7055 90.0855 27.2616C89.6416 22.798 88.31 21.1704 86.707 21.1704C85.1041 21.1704 83.7724 22.798 83.3285 27.2616C78.865 27.7055 77.2374 29.0372 77.2374 30.6401C77.2374 32.243 78.865 33.5747 83.3285 34.0186C83.7724 38.4575 85.1041 40.1097 86.707 40.1097C88.31 40.1097 89.6416 38.4575 90.0855 34.0186C94.5491 33.5747 96.1767 32.243 96.1767 30.6401ZM30.2097 82.1806C30.2097 80.8736 28.8534 79.7146 25.2776 79.4186C24.9324 75.7442 23.8227 74.4865 22.5156 74.4865C21.2086 74.4865 20.0496 75.8182 19.7537 79.4186C16.1039 79.7639 14.8216 80.8736 14.8216 82.1806C14.8216 83.4876 16.1779 84.6467 19.7537 84.9426C20.0989 88.5924 21.2086 89.8747 22.5156 89.8747C23.8227 89.8747 24.9817 88.5184 25.2776 84.9426C28.8534 84.5974 30.2097 83.4876 30.2097 82.1806Z" fill="#FFE236" stroke="#231F20" stroke-width="2.46065" stroke-miterlimit="10"/>
<path d="M53.6127 13.7723C52.3551 12.5639 48.8039 12.2927 44.4637 12.5146C43.6499 9.16079 42.2689 5.80696 39.9755 5.38773C38.4465 4.59859 31.073 4.86986 25.1791 5.93026C19.2853 6.99066 12.109 9.16079 10.95 10.5171C8.92784 11.7255 8.80454 15.4492 9.17444 18.7537C5.03147 20.0361 1.77628 21.5157 1.03647 23.094C-0.961038 25.1162 0.32131 33.772 1.60366 40.9236C2.88601 48.0751 4.61224 56.657 7.2016 57.8654C10.0622 60.7013 25.2778 58.4326 34.1309 56.8789C42.984 55.3253 57.953 52.2181 59.7532 48.6177C61.7507 46.5955 60.4684 37.9396 59.186 30.7881C57.9037 23.6365 56.1774 15.0053 53.6127 13.7723Z" fill="#48EEFF" stroke="#231F20" stroke-width="2.46065" stroke-miterlimit="10"/>
<path d="M18.6935 16.5589C18.6935 16.5589 21.4801 15.9177 27.1027 14.9313C32.7253 13.9448 35.5859 13.5749 35.5859 13.5749M43.7732 20.9978C43.7732 20.9978 44.8583 20.7511 47.0777 20.3566C49.2972 19.962 50.4069 19.814 50.4069 19.814" stroke="#231F20" stroke-width="2.46065" stroke-miterlimit="10" stroke-linecap="round"/>
<path d="M18.9643 34.709C18.9643 37.6914 20.1491 40.5517 22.258 42.6606C24.3668 44.7695 27.2271 45.9542 30.2095 45.9542C33.1919 45.9542 36.0522 44.7695 38.1611 42.6606C40.27 40.5517 41.4547 37.6914 41.4547 34.709C41.4547 31.7266 40.27 28.8663 38.1611 26.7574C36.0522 24.6486 33.1919 23.4638 30.2095 23.4638C27.2271 23.4638 24.3668 24.6486 22.258 26.7574C20.1491 28.8663 18.9643 31.7266 18.9643 34.709Z" fill="white" stroke="#231F20" stroke-width="2.46065" stroke-miterlimit="10"/>
<path d="M31.6402 9.16042C37.9779 8.88915 38.3232 8.93847 38.8904 10.1715" stroke="white" stroke-width="2.46065" stroke-miterlimit="10" stroke-linecap="round"/>
<path d="M94.0067 49.7024C92.3051 45.3128 78.1253 43.34 69.8393 42.4769C61.5534 41.6137 47.2749 40.7013 44.7102 44.6223C42.3675 46.4965 41.0112 57.5445 40.0741 66.8168C39.137 76.0892 38.1999 87.0631 40.0741 89.3812C41.8003 93.7461 55.9554 95.7436 64.2414 96.5821C72.5273 97.4205 86.8058 98.3576 89.3705 94.4366C91.8365 92.5624 93.0942 81.5145 94.0313 72.2421C94.9684 62.9698 95.9302 51.9958 94.0067 49.7024Z" fill="#FF52A1" stroke="#231F20" stroke-width="2.46065" stroke-miterlimit="10"/>
<path d="M88.1373 55.029C86.707 52.341 75.5604 50.8614 69.05 50.0969C62.5397 49.3324 51.3438 48.5926 49.3216 50.96C47.4967 52.0451 46.6583 58.7528 46.0664 64.3014C45.4746 69.85 44.9814 76.6317 46.535 78.062C47.9653 80.75 59.1118 82.2296 65.6222 82.9941C72.1326 83.7586 83.3285 84.4737 85.3507 82.131C87.1509 81.0459 88.014 74.3382 88.5812 68.765C89.1484 63.1917 89.6909 56.4593 88.1373 55.029Z" fill="white" stroke="#231F20" stroke-width="2.46065" stroke-miterlimit="10"/>
<path d="M78.0758 64.9923C77.0529 62.7427 75.7522 60.6301 74.2041 58.7039C73.702 58.1863 73.0331 57.8629 72.3157 57.7907C71.5982 57.7185 70.8783 57.9022 70.2831 58.3093C68.4122 59.8698 66.7541 61.6689 65.351 63.6606L64.7838 64.4498C64.2974 63.5749 63.7276 62.749 63.0822 61.9837C62.7032 61.5845 62.1932 61.3349 61.6453 61.2806C61.0975 61.2262 60.5484 61.3708 60.0983 61.6878C58.6764 62.8542 57.4086 64.1966 56.3253 65.6828C55.0463 67.3 54.0765 69.1392 53.4646 71.1081C53.396 71.5877 53.4898 72.0765 53.7311 72.4966C53.9725 72.9167 54.3474 73.2439 54.7963 73.4262C56.6952 74.4866 75.4125 76.4841 78.1745 75.5963C78.8263 75.5071 79.4274 75.196 79.8766 74.7154C80.3258 74.2347 80.5956 73.614 80.6405 72.9577C80.6405 72.9577 80.9118 71.0588 78.0758 64.9923Z" fill="#FFE236" stroke="#231F20" stroke-width="2.46065" stroke-miterlimit="10"/>
<path d="M85.0794 48.3959C90.48 49.8755 90.8006 50.3687 91.1459 52.1443M72.7491 61.9839C73.7257 63.133 74.4778 64.4548 74.9686 65.8802" stroke="white" stroke-width="2.46065" stroke-miterlimit="10" stroke-linecap="round"/>
<path d="M65.8688 16.4604C65.8688 17.5069 66.2845 18.5105 67.0245 19.2505C67.7644 19.9904 68.768 20.4061 69.8145 20.4061C70.8609 20.4061 71.8645 19.9904 72.6045 19.2505C73.3445 18.5105 73.7602 17.5069 73.7602 16.4604C73.7602 15.414 73.3445 14.4104 72.6045 13.6704C71.8645 12.9304 70.8609 12.5147 69.8145 12.5147C68.768 12.5147 67.7644 12.9304 67.0245 13.6704C66.2845 14.4104 65.8688 15.414 65.8688 16.4604Z" fill="#FFE236" stroke="#231F20" stroke-width="2.46065" stroke-miterlimit="10"/>
</g>
<defs>
<clipPath id="clip0_0_346">
<rect width="99.1414" height="102.774" fill="white" transform="scale(1.0022)"/>
</clipPath>
</defs>
</svg>
